<svg xmlns="http://www.w3.org/2000/svg" width="44" height="44" viewBox="0 0 44 44" fill="none">
  <path fill-rule="evenodd" clip-rule="evenodd" d="M22 38.5C24.1668 38.5 26.3124 38.0732 28.3143 37.244C30.3161 36.4148 32.1351 35.1994 33.6673 33.6673C35.1994 32.1351 36.4148 30.3161 37.244 28.3143C38.0732 26.3124 38.5 24.1668 38.5 22C38.5 19.8332 38.0732 17.6876 37.244 15.6857C36.4148 13.6839 35.1994 11.8649 33.6673 10.3327C32.1351 8.80057 30.3161 7.58519 28.3143 6.75599C26.3124 5.92678 24.1668 5.5 22 5.5C17.6239 5.5 13.4271 7.23839 10.3327 10.3327C7.23839 13.4271 5.5 17.6239 5.5 22C5.5 26.3761 7.23839 30.5729 10.3327 33.6673C13.4271 36.7616 17.6239 38.5 22 38.5ZM21.5747 28.6733L30.7413 17.6733L27.9253 15.3267L20.042 24.7848L15.9628 20.7038L13.3705 23.2962L18.8705 28.7962L20.2895 30.2152L21.5747 28.6733Z" fill="currentColor"/>
</svg>