<svg xmlns="http://www.w3.org/2000/svg" width="87" height="87" viewBox="0 0 87 87" fill="none">
  <path fill-rule="evenodd" clip-rule="evenodd" d="M38.0625 14.4998C31.8133 14.4998 25.8201 16.9823 21.4013 21.4011C16.9825 25.8199 14.5 31.8132 14.5 38.0623C14.5 44.3115 16.9825 50.3047 21.4013 54.7235C25.8201 59.1424 31.8133 61.6248 38.0625 61.6248C44.3117 61.6248 50.3049 59.1424 54.7237 54.7235C59.1425 50.3047 61.625 44.3115 61.625 38.0623C61.625 31.8132 59.1425 25.8199 54.7237 21.4011C50.3049 16.9823 44.3117 14.4998 38.0625 14.4998ZM7.25 38.0623C7.25042 33.149 8.42582 28.307 10.6781 23.9403C12.9305 19.5735 16.1944 15.8088 20.1976 12.9601C24.2008 10.1113 28.8273 8.26123 33.6909 7.56414C38.5546 6.86704 43.5144 7.34316 48.1566 8.95277C52.7988 10.5624 56.9888 13.2588 60.377 16.8171C63.7652 20.3753 66.2533 24.6922 67.6338 29.4077C69.0143 34.1231 69.2471 39.1003 68.3128 43.924C67.3785 48.7477 65.3042 53.2781 62.263 57.1371L75.5015 70.3756C76.1618 71.0593 76.5272 71.9749 76.5189 72.9254C76.5107 73.8759 76.1295 74.7851 75.4573 75.4572C74.7852 76.1293 73.876 76.5105 72.9256 76.5188C71.9751 76.527 71.0594 76.1616 70.3758 75.5013L57.1373 62.2628C52.5937 65.8443 47.1337 68.0743 41.382 68.6976C35.6303 69.3208 29.8193 68.3122 24.6141 65.7871C19.4089 63.2621 15.0197 59.3225 11.9488 54.4194C8.87801 49.5163 7.24961 43.8477 7.25 38.0623ZM34.4375 25.3748C34.4375 24.4134 34.8194 23.4914 35.4992 22.8116C36.1791 22.1317 37.1011 21.7498 38.0625 21.7498C42.3888 21.7498 46.538 23.4685 49.5972 26.5276C52.6564 29.5868 54.375 33.736 54.375 38.0623C54.375 39.0237 53.9931 39.9458 53.3133 40.6256C52.6334 41.3054 51.7114 41.6873 50.75 41.6873C49.7886 41.6873 48.8666 41.3054 48.1867 40.6256C47.5069 39.9458 47.125 39.0237 47.125 38.0623C47.125 35.6588 46.1702 33.3537 44.4707 31.6542C42.7711 29.9546 40.466 28.9998 38.0625 28.9998C37.1011 28.9998 36.1791 28.6179 35.4992 27.9381C34.8194 27.2583 34.4375 26.3362 34.4375 25.3748Z" fill="#0468A6"/>
</svg>