<svg xmlns="http://www.w3.org/2000/svg" width="87" height="87" viewBox="0 0 87 87" fill="none">
  <path d="M31.9 39.6937L39.6937 31.8094L34.6188 26.6437L30.6312 30.6312L25.5563 25.5563L29.4531 21.5687L25.375 17.4906L17.4906 25.375L31.9 39.6937ZM61.625 69.5094L69.5094 61.625L65.4312 57.5469L61.4438 61.4438L56.3688 56.3688L60.2656 52.3812L55.1 47.3063L47.3063 55.1L61.625 69.5094ZM26.2812 76.125H10.875V60.7188L26.7344 44.8594L7.25 25.375L25.375 7.25L44.95 26.825L58.6344 13.05C59.3594 12.325 60.175 11.7813 61.0813 11.4188C61.9875 11.0563 62.924 10.875 63.8906 10.875C64.8573 10.875 65.7937 11.0563 66.7 11.4188C67.6062 11.7813 68.4219 12.325 69.1469 13.05L73.95 17.9437C74.675 18.6687 75.2188 19.4844 75.5813 20.3906C75.9437 21.2969 76.125 22.2333 76.125 23.2C76.125 24.1667 75.9437 25.0886 75.5813 25.9659C75.2188 26.8431 74.675 27.643 73.95 28.3656L60.2656 42.1406L79.75 61.625L61.625 79.75L42.1406 60.2656L26.2812 76.125ZM18.125 68.875H23.2L58.725 33.4406L53.5594 28.275L18.125 63.8V68.875ZM56.1875 30.9031L53.5594 28.275L58.725 33.4406L56.1875 30.9031Z" fill="#0468A6"/>
</svg>