<svg xmlns="http://www.w3.org/2000/svg" width="31" height="31" viewBox="0 0 31 31" fill="none">
  <g clip-path="url(#clip0_1_466)">
    <path d="M23.25 3.19688C20.9734 1.79219 18.3578 0.96875 15.5 0.96875V3.19688H23.25Z" fill="#ED4C5C"/>
    <path d="M15.5 5.425H25.9625C25.1391 4.60156 24.2187 3.82656 23.25 3.19687H15.5V5.425Z" fill="white"/>
    <path d="M15.5 7.65313H27.7547C27.2219 6.82969 26.6406 6.10313 26.0109 5.425H15.5V7.65313Z" fill="#ED4C5C"/>
    <path d="M15.5 9.88125H28.9172C28.5781 9.10625 28.1906 8.33125 27.7547 7.65313H15.5V9.88125Z" fill="white"/>
    <path d="M15.5 12.1094H29.6437C29.45 11.3344 29.2078 10.6078 28.9172 9.88125H15.5V12.1094Z" fill="#ED4C5C"/>
    <path d="M15.5 14.3859H29.9828C29.9344 13.6109 29.7891 12.8844 29.6438 12.1578H15.5V14.3859Z" fill="white"/>
    <path d="M29.9828 14.3859H15.5V15.5H0.96875C0.96875 15.8875 0.96875 16.2266 1.01719 16.6141H29.9828C30.0312 16.2266 30.0312 15.8875 30.0312 15.5C30.0312 15.1125 30.0312 14.725 29.9828 14.3859Z" fill="#ED4C5C"/>
    <path d="M1.35627 18.8422H29.6438C29.8375 18.1156 29.9344 17.3891 29.9828 16.6141H1.01721C1.06565 17.3406 1.16252 18.1156 1.35627 18.8422Z" fill="white"/>
    <path d="M2.08276 21.0703H28.9171C29.2078 20.3437 29.4499 19.6172 29.6437 18.8422H1.3562C1.54995 19.6172 1.79214 20.3437 2.08276 21.0703Z" fill="#ED4C5C"/>
    <path d="M3.24526 23.2984H27.7546C28.1906 22.5719 28.5781 21.8453 28.9171 21.0703H2.08276C2.42183 21.8453 2.80933 22.5719 3.24526 23.2984Z" fill="white"/>
    <path d="M4.98911 25.5266H26.011C26.6407 24.8484 27.2704 24.0734 27.7547 23.2984H3.24536C3.72974 24.1219 4.35942 24.8484 4.98911 25.5266Z" fill="#ED4C5C"/>
    <path d="M7.70151 27.7547H23.2984C24.3156 27.125 25.1875 26.35 26.0109 25.5266H4.98901C5.81245 26.3984 6.73276 27.125 7.70151 27.7547Z" fill="white"/>
    <path d="M15.5 30.0312C18.3578 30.0312 21.0218 29.2078 23.2984 27.7547H7.70154C9.9781 29.2078 12.6422 30.0312 15.5 30.0312Z" fill="#ED4C5C"/>
    <path d="M7.75 3.19687C6.73281 3.82656 5.8125 4.60156 4.98906 5.425C4.31094 6.10313 3.72969 6.87813 3.24531 7.65313C2.80937 8.37969 2.37344 9.10625 2.08281 9.88125C1.79219 10.6078 1.55 11.3344 1.35625 12.1094C1.1625 12.8359 1.06562 13.5625 1.01719 14.3375C0.96875 14.725 0.96875 15.1125 0.96875 15.5H15.5V0.96875C12.6422 0.96875 10.0266 1.79219 7.75 3.19687Z" fill="#428BC1"/>
    <path d="M12.1094 1.45312L12.3515 2.17969H13.0781L12.4969 2.66406L12.6906 3.39062L12.1094 2.95469L11.5281 3.39062L11.7219 2.66406L11.1406 2.17969H11.8672L12.1094 1.45312ZM14.0469 4.35938L14.289 5.08594H15.0156L14.4344 5.57031L14.6281 6.29688L14.0469 5.86094L13.4656 6.29688L13.6594 5.57031L13.0781 5.08594H13.8047L14.0469 4.35938ZM10.1719 4.35938L10.414 5.08594H11.1406L10.5594 5.57031L10.7531 6.29688L10.1719 5.86094L9.5906 6.29688L9.78435 5.57031L9.2031 5.08594H9.92966L10.1719 4.35938ZM12.1094 7.26562L12.3515 7.99219H13.0781L12.4969 8.47656L12.6906 9.20312L12.1094 8.76719L11.5281 9.20312L11.7219 8.47656L11.1406 7.99219H11.8672L12.1094 7.26562ZM8.23435 7.26562L8.47654 7.99219H9.2031L8.62185 8.47656L8.8156 9.20312L8.23435 8.76719L7.6531 9.20312L7.84685 8.47656L7.2656 7.99219H7.99216L8.23435 7.26562ZM4.35935 7.26562L4.60154 7.99219H5.3281L4.74685 8.47656L4.9406 9.20312L4.35935 8.76719L3.7781 9.20312L3.97185 8.47656L3.3906 7.99219H4.11716L4.35935 7.26562ZM14.0469 10.1719L14.289 10.8984H15.0156L14.4344 11.3828L14.6281 12.1094L14.0469 11.6734L13.4656 12.1094L13.6594 11.3828L13.0781 10.8984H13.8047L14.0469 10.1719ZM10.1719 10.1719L10.414 10.8984H11.1406L10.5594 11.3828L10.7531 12.1094L10.1719 11.6734L9.5906 12.1094L9.78435 11.3828L9.2031 10.8984H9.92966L10.1719 10.1719ZM6.29685 10.1719L6.53904 10.8984H7.2656L6.68435 11.3828L6.8781 12.1094L6.29685 11.6734L5.7156 12.1094L5.90935 11.3828L5.3281 10.8984H6.05466L6.29685 10.1719ZM12.1094 13.0781L12.3515 13.8047H13.0781L12.4969 14.2891L12.6906 15.0156L12.1094 14.5797L11.5281 15.0156L11.7219 14.2891L11.1406 13.8047H11.8672L12.1094 13.0781ZM8.23435 13.0781L8.47654 13.8047H9.2031L8.62185 14.2891L8.8156 15.0156L8.23435 14.5797L7.6531 15.0156L7.84685 14.2891L7.2656 13.8047H7.99216L8.23435 13.0781ZM4.35935 13.0781L4.60154 13.8047H5.3281L4.74685 14.2891L4.9406 15.0156L4.35935 14.5797L3.7781 15.0156L3.97185 14.2891L3.3906 13.8047H4.11716L4.35935 13.0781ZM5.7156 6.29688L6.29685 5.86094L6.8781 6.29688L6.63591 5.57031L7.21716 5.08594H6.4906L6.29685 4.35938L6.05466 5.08594H5.37654L5.95779 5.52187L5.7156 6.29688ZM1.8406 12.1094L2.42185 11.6734L3.0031 12.1094L2.76091 11.3828L3.34216 10.8984H2.66404L2.42185 10.1719L2.17966 10.8984H1.69529C1.69529 10.9469 1.64685 10.9953 1.64685 11.0437L2.03435 11.3344L1.8406 12.1094Z" fill="white"/>
  </g>
  <defs>
    <clipPath id="clip0_1_466">
      <rect width="31" height="31" fill="white"/>
    </clipPath>
  </defs>
</svg>