<svg xmlns="http://www.w3.org/2000/svg" width="31" height="31" viewBox="0 0 31 31" fill="none">
  <path d="M0.96875 15.5C0.96875 18.3578 1.79219 21.0219 3.19687 23.25H27.7547C29.1594 21.0219 29.9828 18.3578 29.9828 15.5C29.9828 12.6422 29.1594 9.97812 27.7547 7.75H3.19687C1.79219 9.97812 0.96875 12.6422 0.96875 15.5Z" fill="#FFCE31"/>
  <path d="M27.8032 7.75C25.236 3.68125 20.6828 0.96875 15.5 0.96875C10.3172 0.96875 5.76409 3.68125 3.1969 7.75H27.8032ZM3.1969 23.25C5.76409 27.3188 10.3172 30.0312 15.5 30.0312C20.6828 30.0312 25.236 27.3188 27.8032 23.25H3.1969Z" fill="#ED4C5C"/>
  <path d="M4.4563 13.9016H6.0063V14.7734H4.4563V13.9016ZM4.4563 20.2953H6.05474V21.1187H4.4563V20.2953Z" fill="#C8B100"/>
  <path d="M4.31091 18.9391C4.1656 19.0359 4.06873 19.1328 4.06873 19.1812C4.06873 19.2297 4.11716 19.2781 4.21404 19.3266C4.31091 19.375 4.40779 19.4719 4.35935 19.5688C4.45623 19.4719 4.50466 19.375 4.50466 19.2781C4.50466 19.1328 4.40779 18.9875 4.31091 18.9391Z" fill="#ED4C5C"/>
  <path d="M4.69849 14.7734H5.81255V20.2953H4.69849V14.7734Z" fill="white"/>
  <path d="M6.97501 16.8078C6.73283 16.7109 6.29689 16.6141 5.81252 16.6141C5.6672 16.6141 5.47345 16.6141 5.2797 16.6625C4.60158 16.7594 4.06877 17.05 4.1172 17.2437L3.87502 16.7109C3.82658 16.4688 4.40783 16.1781 5.13439 16.0328C5.37658 15.9844 5.61876 15.9844 5.81252 15.9844C6.29689 15.9844 6.73283 16.0328 6.97501 16.1297V16.8078Z" fill="#ED4C5C"/>
  <path d="M4.69846 17.5344C4.40784 17.5344 4.16565 17.4375 4.16565 17.2922C4.16565 17.1953 4.26252 17.05 4.45627 16.9531H4.7469L4.69846 17.5344ZM5.81252 17.0984C6.00627 17.1469 6.15159 17.1953 6.24846 17.2437C6.2969 17.2922 6.10315 17.4859 5.81252 17.6313V17.0984Z" fill="#ED4C5C"/>
  <path d="M3.9719 18.6C3.92346 18.5031 4.26252 18.3094 4.69846 18.1641C4.89221 18.1156 5.03752 18.0188 5.27971 17.9219C5.86096 17.6797 6.34534 17.3406 6.24846 17.2437L6.34534 17.825C6.39377 17.9219 6.00627 18.2125 5.42502 18.5031C5.23127 18.6 4.89221 18.7453 4.69846 18.7938C4.3594 18.8906 4.06877 19.0844 4.06877 19.1328L3.9719 18.6Z" fill="#ED4C5C"/>
  <path d="M14.8703 13.9016H16.4203V14.7734H14.8703V13.9016ZM14.8219 20.2953H16.4203V21.1187H14.8219V20.2953Z" fill="#C8B100"/>
  <path d="M16.5656 18.9391C16.7109 19.0359 16.8078 19.1328 16.8078 19.1812C16.8078 19.2297 16.7593 19.2781 16.6625 19.3266C16.5656 19.4234 16.4687 19.5688 16.5171 19.6172C16.4203 19.5203 16.3718 19.4234 16.3718 19.3266C16.3718 19.1328 16.4687 18.9875 16.5656 18.9391Z" fill="#ED4C5C"/>
  <path d="M15.0641 14.7734H16.1781V20.2953H15.0641V14.7734Z" fill="white"/>
  <path d="M13.9015 16.8078C14.1437 16.7109 14.5796 16.6141 15.064 16.6141C15.2093 16.6141 15.4031 16.6141 15.5968 16.6625C16.2749 16.7594 16.8077 17.05 16.7593 17.2437L17.0015 16.6625C17.0499 16.4203 16.4687 16.1297 15.7421 15.9844H15.064C14.5796 15.9844 14.1437 16.0328 13.9015 16.1297V16.8078Z" fill="#ED4C5C"/>
  <path d="M16.178 17.5344C16.4686 17.5344 16.7108 17.4375 16.7108 17.2922C16.7108 17.1953 16.614 17.05 16.4202 16.9531H16.1296L16.178 17.5344ZM15.064 17.0984C14.8702 17.1469 14.7249 17.1953 14.628 17.2437C14.5796 17.2922 14.7733 17.4859 15.064 17.6313V17.0984Z" fill="#ED4C5C"/>
  <path d="M16.9046 18.6C16.9531 18.5031 16.614 18.3094 16.1781 18.1641C15.9843 18.1156 15.839 18.0188 15.5968 17.9219C15.0156 17.6797 14.5312 17.3406 14.6281 17.2438L14.5312 17.825C14.4828 17.9219 14.8703 18.2125 15.4515 18.5031C15.6453 18.6 15.9843 18.7453 16.1781 18.7938C16.5171 18.8906 16.8078 19.1328 16.7593 19.1813L16.9046 18.6ZM10.414 10.8016C11.3343 10.8016 13.2234 10.9953 13.9015 11.6734C13.175 13.4172 12.0125 12.6906 10.414 12.6906C8.86401 12.6906 7.65308 13.4172 6.92651 11.6734C7.60464 10.9953 9.44526 10.8016 10.414 10.8016Z" fill="#ED4C5C"/>
  <path d="M12.7875 12.7391C12.2062 12.4 11.3343 12.3516 10.414 12.3516C9.4937 12.3516 8.62183 12.4484 8.04058 12.7391L8.23433 13.5625C8.76714 13.7078 9.54214 13.8047 10.414 13.8047C11.2859 13.8047 12.0125 13.7078 12.5937 13.5625L12.7875 12.7391ZM13.6109 10.6562C13.4171 10.5109 13.0296 10.3656 12.6906 10.3656C12.5453 10.3656 12.4 10.3656 12.2546 10.4141C12.2546 10.4141 11.964 10.0266 11.2859 10.0266C11.0437 10.0266 10.85 10.075 10.6562 10.1719V10.1234C10.6078 10.0266 10.5109 9.92969 10.414 9.92969C10.3171 9.92969 10.1718 10.075 10.1718 10.1719V10.2203C9.97808 10.1234 9.78433 10.075 9.54214 10.075C8.86401 10.075 8.57339 10.5109 8.57339 10.4625C8.42808 10.4141 8.28276 10.4141 8.13745 10.4141C5.90933 10.4141 7.02339 11.9156 7.02339 11.9156L7.26558 11.625C6.73276 10.9469 7.21714 10.5594 8.18589 10.5594C8.3312 10.5594 8.42808 10.5594 8.52495 10.6078C8.18589 11.0922 8.81558 11.5281 8.81558 11.5281L8.96089 11.2859C8.62183 11.0437 8.57339 10.2203 9.54214 10.2203C9.78433 10.2203 9.97808 10.2687 10.1718 10.4141C10.1718 10.4625 10.1234 11.1406 10.075 11.2375L10.4625 11.5766L10.85 11.2375C10.8015 11.0922 10.7531 10.4625 10.7531 10.4141C10.8984 10.3172 11.1406 10.2203 11.3828 10.2203C12.4 10.2203 12.4 11.0437 11.964 11.2859L12.1093 11.5281C12.1093 11.5281 12.6421 11.0922 12.4 10.6078C12.4968 10.6078 12.6421 10.5594 12.739 10.5594C13.9015 10.5594 13.95 11.4312 13.6593 11.625L13.8531 11.9156C13.7562 11.9156 14.289 11.2375 13.6109 10.6562Z" fill="#C8B100"/>
  <path d="M10.1234 9.73594C10.1234 9.59063 10.2687 9.44531 10.414 9.44531C10.6078 9.44531 10.7047 9.59063 10.7047 9.73594C10.7047 9.88125 10.5594 10.0266 10.414 10.0266C10.2687 10.0266 10.1234 9.88125 10.1234 9.73594Z" fill="#005BBF"/>
  <path d="M10.3172 8.9125V9.05781H10.1719V9.20313H10.3172V9.6875H10.1234V9.83281H10.7047L10.7531 9.73594L10.7047 9.6875H10.5109V9.20313H10.6562V9.05781H10.5109V8.9125H10.3172Z" fill="#C8B100"/>
  <path d="M10.414 13.7078C9.63904 13.7078 8.96091 13.6109 8.4281 13.4656C8.96091 13.3203 9.63904 13.2234 10.414 13.2234C11.189 13.2234 11.8672 13.3203 12.4 13.4656C11.9156 13.6109 11.189 13.7078 10.414 13.7078Z" fill="#ED4C5C"/>
  <path d="M10.4625 22.0875C9.54216 22.0875 8.67029 21.8453 7.89529 21.5063C7.31404 21.2156 6.97498 20.6828 6.97498 20.0531V17.7281H13.95V20.0531C13.95 20.6828 13.5625 21.2641 13.0297 21.5063C12.2547 21.8938 11.3828 22.0875 10.4625 22.0875ZM10.414 13.8531H13.9015V17.7281H10.414V13.8531Z" fill="white"/>
  <path d="M10.4625 20.0531C10.4625 20.9734 9.68748 21.7 8.71873 21.7C7.74998 21.7 6.97498 20.9734 6.97498 20.0531V17.7281H10.4625V20.0531Z" fill="#ED4C5C"/>
  <path d="M7.70151 21.4094C7.79839 21.4578 7.9437 21.5547 8.13745 21.6031V17.6313H7.74995L7.70151 21.4094ZM6.92651 20.0047C6.92651 20.4891 7.12026 20.8766 7.31401 21.0703V17.6313H6.92651V20.0047Z" fill="#C8B100"/>
  <path d="M8.47656 21.7H8.86406V17.6313H8.47656V21.7Z" fill="#C7B500"/>
  <path d="M9.25159 21.6031C9.3969 21.5547 9.59065 21.4578 9.68752 21.4094V17.6313H9.30002L9.25159 21.6031Z" fill="#C8B100"/>
  <path d="M6.92651 13.8531H10.414V17.7281H6.92651V13.8531Z" fill="#ED4C5C"/>
  <path d="M10.075 21.0703C10.2687 20.925 10.414 20.5859 10.4625 20.1984V17.6797H10.075V21.0703Z" fill="#C8B100"/>
  <path d="M13.95 17.7281V20.0531C13.95 20.9734 13.175 21.7 12.2062 21.7C11.2375 21.7 10.4625 20.9734 10.4625 20.0531V17.7281H13.95ZM12.6906 14.5313C12.8359 14.8219 12.8359 15.5484 12.4 15.4031C12.4969 15.4516 12.5453 15.7906 12.6906 15.9844C12.9328 16.275 13.2234 16.0328 13.175 15.6938C13.0781 15.1609 13.1265 14.8219 13.2234 14.2891C13.2234 14.3375 13.4656 14.3375 13.5625 14.2406C13.514 14.3859 13.4656 14.5797 13.5625 14.5797C13.4656 14.725 13.2234 14.9672 13.175 15.1125C13.1265 15.4516 13.6594 16.0813 13.0781 16.2266C12.6906 16.3234 12.9328 16.6141 13.0781 16.7594C13.0781 16.7594 12.8844 17.3891 12.9812 17.3406C12.5937 17.4859 12.6906 17.1469 12.6906 17.1469C12.8844 16.5656 12.3515 16.5172 12.4 16.4203C11.9156 16.3719 12.4484 16.8563 12.0125 16.8563C11.9156 16.8563 11.7219 16.9531 11.7219 16.9531C11.189 16.9047 11.4797 16.4203 11.6734 16.4688C11.8187 16.5172 11.964 16.7594 11.964 16.4203C11.964 16.4203 11.7219 16.0328 12.3515 16.0328C12.1094 16.0328 11.964 15.8391 11.8672 15.5969C11.7703 15.6453 11.625 15.8875 11.0922 15.9359C11.0922 15.9359 10.9469 15.4031 11.0922 15.5C11.2859 15.5969 11.3828 15.5969 11.5765 15.4031C11.4797 15.2578 10.8984 15.0641 10.9953 14.725C10.9953 14.6281 11.2859 14.4828 11.2859 14.4828C11.2375 14.725 11.3828 14.9672 11.6734 14.9672C12.0609 15.0156 11.9156 14.8703 11.964 14.7734C12.0125 14.6766 12.3031 14.8219 12.2062 14.5797C12.2062 14.5313 11.8672 14.4828 11.964 14.3375C12.1578 14.0953 12.4484 14.2891 12.6906 14.5313ZM10.4625 21.6031L10.3656 21.3609L10.4625 21.0703L10.5594 21.3609L10.4625 21.6031Z" fill="#ED4C5C"/>
  <path d="M7.99216 14.6766V14.9187H8.08904V15.1125H7.84685V15.5969H7.99216V16.6625H7.70154V17.1953H9.68748V16.6625H9.44529V15.5969H9.54216V15.1125H9.29998V14.9187H9.44529V14.6766H8.96091V14.9187H9.05779V15.1125H8.8156V14.5313H8.96091V14.2891H8.4281V14.5313H8.57341V15.1125H8.33123V14.9187H8.4281V14.6766H7.99216ZM13.4656 20.6344V18.2125H10.9469V20.6344L12.1094 21.1672H12.2547L13.4656 20.6344ZM12.1094 18.4063V19.2297L11.2859 18.4063H12.1094ZM11.0922 18.4547L12.0609 19.4234L11.0922 20.3922V18.4547ZM11.189 20.5859L12.1094 19.6656V21.0219L11.189 20.5859ZM12.2547 20.9734V19.6172L13.175 20.5375L12.2547 20.9734ZM13.2719 20.3922L12.3031 19.4234L13.2719 18.4547V20.3922ZM12.2547 18.4063H13.0781L12.2547 19.2297V18.4063Z" fill="#C8B100"/>
  <path d="M9.30005 17.6797C9.30005 16.9531 9.78442 16.4203 10.4141 16.4203C11.0438 16.4203 11.5282 17.0016 11.5282 17.6797C11.5282 18.3578 11.0438 18.9391 10.4141 18.9391C9.78442 18.9391 9.30005 18.4062 9.30005 17.6797Z" fill="#ED4C5C"/>
  <path d="M9.63904 17.6797C9.63904 17.1469 9.9781 16.7594 10.414 16.7594C10.85 16.7594 11.189 17.1953 11.189 17.6797C11.189 18.2125 10.85 18.6 10.414 18.6C10.0265 18.6484 9.63904 18.2125 9.63904 17.6797Z" fill="#005BBF"/>
  <path d="M10.075 17.05L9.88123 17.5828L10.0265 17.6312L9.92966 17.825H10.2203L10.1234 17.6312L10.2687 17.5828L10.075 17.05ZM10.8015 17.05L10.6078 17.5828L10.7531 17.6312L10.6562 17.825H10.9469L10.8984 17.6312L11.0437 17.5828L10.8015 17.05ZM10.4625 17.6797L10.2203 18.2125L10.3656 18.2609L10.3172 18.4547H10.5594L10.5109 18.2609L10.6562 18.2125L10.4625 17.6797Z" fill="#C8B100"/>
</svg>