<svg xmlns="http://www.w3.org/2000/svg" width="71" height="66" viewBox="0 0 71 66" fill="none">
  <g clip-path="url(#clip0_1_85)">
    <path d="M0.5 7.10423C0.5 4.28381 2.78667 2.00006 5.60417 2.00006H42.0625C44.8829 2.00006 47.1667 4.28381 47.1667 7.10423V34.8126C47.1667 36.1663 46.6289 37.4645 45.6717 38.4218C44.7145 39.379 43.4162 39.9167 42.0625 39.9167H24.0112L16.5037 47.4213C15.9094 48.0153 15.1524 48.4198 14.3282 48.5837C13.5041 48.7475 12.6499 48.6634 11.8735 48.3418C11.0972 48.0203 10.4336 47.4759 9.96666 46.7773C9.49969 46.0787 9.25029 45.2574 9.25 44.4171V39.9167H5.60417C4.25046 39.9167 2.95219 39.379 1.99498 38.4218C1.03776 37.4645 0.5 36.1663 0.5 34.8126L0.5 7.10423ZM5.60417 6.37506C5.41078 6.37506 5.22531 6.45188 5.08857 6.58863C4.95182 6.72537 4.875 6.91084 4.875 7.10423V34.8126C4.875 35.2151 5.20167 35.5417 5.60417 35.5417H11.4375C12.0177 35.5417 12.5741 35.7722 12.9843 36.1824C13.3945 36.5927 13.625 37.1491 13.625 37.7292V44.1138L21.5583 36.1834C21.9682 35.773 22.5242 35.5422 23.1042 35.5417H42.0625C42.2559 35.5417 42.4414 35.4649 42.5781 35.3282C42.7148 35.1914 42.7917 35.0059 42.7917 34.8126V7.10423C42.7917 6.91084 42.7148 6.72537 42.5781 6.58863C42.4414 6.45188 42.2559 6.37506 42.0625 6.37506H5.60417ZM65.3958 23.8751H55.1875C54.6073 23.8751 54.0509 23.6446 53.6407 23.2344C53.2305 22.8241 53 22.2677 53 21.6876C53 21.1074 53.2305 20.551 53.6407 20.1408C54.0509 19.7305 54.6073 19.5001 55.1875 19.5001H65.3958C68.2133 19.5001 70.5 21.7867 70.5 24.6042V52.3126C70.5 53.6663 69.9622 54.9645 69.005 55.9217C68.0478 56.879 66.7495 57.4167 65.3958 57.4167H61.75V61.9171C61.7497 62.7574 61.5003 63.5787 61.0333 64.2773C60.5664 64.9759 59.9028 65.5203 59.1265 65.8418C58.3501 66.1634 57.4959 66.2475 56.6718 66.0837C55.8476 65.9198 55.0906 65.5153 54.4963 64.9213L46.9888 57.4167H31.8542C30.5005 57.4167 29.2022 56.879 28.245 55.9217C27.2878 54.9645 26.75 53.6663 26.75 52.3126V48.0396C26.75 47.4595 26.9805 46.9031 27.3907 46.4928C27.8009 46.0826 28.3573 45.8521 28.9375 45.8521C29.5177 45.8521 30.0741 46.0826 30.4843 46.4928C30.8945 46.9031 31.125 47.4595 31.125 48.0396V52.3126C31.125 52.7151 31.4517 53.0417 31.8542 53.0417H47.8958C48.4763 53.0417 49.0333 53.2721 49.4417 53.6834L57.375 61.6138V55.2292C57.375 54.6491 57.6055 54.0927 58.0157 53.6824C58.4259 53.2722 58.9823 53.0417 59.5625 53.0417H65.3958C65.5892 53.0417 65.7747 52.9649 65.9114 52.8282C66.0482 52.6914 66.125 52.5059 66.125 52.3126V24.6042C66.125 24.4108 66.0482 24.2254 65.9114 24.0886C65.7747 23.9519 65.5892 23.8751 65.3958 23.8751ZM37.0458 14.4834L22.4625 29.0667C22.26 29.2706 22.0192 29.4324 21.7539 29.5428C21.4886 29.6533 21.204 29.7101 20.9167 29.7101C20.6293 29.7101 20.3448 29.6533 20.0795 29.5428C19.8142 29.4324 19.5733 29.2706 19.3708 29.0667L12.0792 21.7751C11.8762 21.5721 11.7151 21.3311 11.6053 21.0658C11.4954 20.8006 11.4389 20.5163 11.4389 20.2292C11.4389 19.9421 11.4954 19.6579 11.6053 19.3926C11.7151 19.1274 11.8762 18.8864 12.0792 18.6834C12.2822 18.4804 12.5232 18.3194 12.7884 18.2095C13.0536 18.0996 13.3379 18.0431 13.625 18.0431C13.9121 18.0431 14.1964 18.0996 14.4616 18.2095C14.7268 18.3194 14.9678 18.4804 15.1708 18.6834L20.9167 24.4263L33.9542 11.3917C34.1572 11.1887 34.3982 11.0277 34.6634 10.9178C34.9286 10.808 35.2129 10.7514 35.5 10.7514C35.7871 10.7514 36.0714 10.808 36.3366 10.9178C36.6018 11.0277 36.8428 11.1887 37.0458 11.3917C37.2488 11.5947 37.4099 11.8357 37.5197 12.101C37.6296 12.3662 37.6861 12.6505 37.6861 12.9376C37.6861 13.2246 37.6296 13.5089 37.5197 13.7742C37.4099 14.0394 37.2488 14.2804 37.0458 14.4834Z" fill="#0468A6"/>
  </g>
  <defs>
    <clipPath id="clip0_1_85">
      <rect width="70" height="66" fill="white" transform="translate(0.5)"/>
    </clipPath>
  </defs>
</svg>