<svg xmlns="http://www.w3.org/2000/svg" width="87" height="87" viewBox="0 0 87 87" fill="none">
  <g clip-path="url(#clip0_1_207)">
    <path d="M39.875 37.99V66.99C39.875 67.9514 39.4931 68.8734 38.8133 69.5533C38.1334 70.2331 37.2114 70.615 36.25 70.615H10.875C9.91359 70.615 8.99156 70.2331 8.31174 69.5533C7.63192 68.8734 7.25 67.9514 7.25 66.99V27.1875C7.25 26.2261 7.63192 25.3041 8.31174 24.6242C8.99156 23.9444 9.91359 23.5625 10.875 23.5625H33.5312C33.7716 23.5625 34.0021 23.467 34.1721 23.2971C34.342 23.1271 34.4375 22.8966 34.4375 22.6562V15.4062C34.4375 15.1659 34.342 14.9354 34.1721 14.7654C34.0021 14.5955 33.7716 14.5 33.5312 14.5H9.0625C6.65898 14.5 4.35389 15.4548 2.65434 17.1543C0.954796 18.8539 0 21.159 0 23.5625L0 77.9375C0 79.1276 0.234408 80.3061 0.689842 81.4056C1.14527 82.5051 1.81281 83.5041 2.65434 84.3457C3.49588 85.1872 4.49492 85.8547 5.59443 86.3102C6.69394 86.7656 7.8724 87 9.0625 87H38.0625C39.2526 87 40.4311 86.7656 41.5306 86.3102C42.6301 85.8547 43.6291 85.1872 44.4707 84.3457C45.3122 83.5041 45.9797 82.5051 46.4352 81.4056C46.8906 80.3061 47.125 79.1276 47.125 77.9375V38.9325C47.1156 38.6985 47.016 38.4772 46.8471 38.315C46.6781 38.1528 46.453 38.0623 46.2188 38.0625C44.4744 38.0703 42.7429 37.7633 41.1075 37.1562C40.9716 37.0937 40.8219 37.0673 40.6728 37.0795C40.5238 37.0918 40.3803 37.1422 40.2565 37.226C40.1326 37.3098 40.0324 37.4242 39.9655 37.558C39.8987 37.6918 39.8675 37.8406 39.875 37.99Z" fill="#19B6D9"/>
    <path d="M81.5625 0H45.3125C43.8704 0 42.4873 0.572878 41.4676 1.59261C40.4479 2.61234 39.875 3.99539 39.875 5.4375V27.1875C39.875 28.6296 40.4479 30.0127 41.4676 31.0324C42.4873 32.0521 43.8704 32.625 45.3125 32.625H54.375V39.1138C54.3729 39.4716 54.4768 39.822 54.6735 40.1209C54.8703 40.4198 55.1511 40.6538 55.4806 40.7934C55.8101 40.9329 56.1736 40.9718 56.5251 40.9052C56.8767 40.8385 57.2007 40.6692 57.4563 40.4187L65.25 32.625H81.5625C83.0046 32.625 84.3877 32.0521 85.4074 31.0324C86.4271 30.0127 87 28.6296 87 27.1875V5.4375C87 3.99539 86.4271 2.61234 85.4074 1.59261C84.3877 0.572878 83.0046 0 81.5625 0ZM48.0312 15.4062C48.0312 14.6893 48.2439 13.9884 48.6422 13.3923C49.0405 12.7962 49.6066 12.3316 50.269 12.0572C50.9314 11.7828 51.6603 11.711 52.3635 11.8509C53.0666 11.9908 53.7125 12.336 54.2195 12.843C54.7265 13.35 55.0717 13.9959 55.2116 14.699C55.3515 15.4022 55.2797 16.1311 55.0053 16.7935C54.7309 17.4559 54.2663 18.022 53.6702 18.4203C53.0741 18.8186 52.3732 19.0312 51.6562 19.0312C50.6948 19.0312 49.7728 18.6493 49.093 17.9695C48.4132 17.2897 48.0312 16.3677 48.0312 15.4062ZM60.7188 15.4062C60.7188 14.6893 60.9313 13.9884 61.3297 13.3923C61.728 12.7962 62.2941 12.3316 62.9565 12.0572C63.6189 11.7828 64.3478 11.711 65.051 11.8509C65.7541 11.9908 66.4 12.336 66.907 12.843C67.414 13.35 67.7592 13.9959 67.8991 14.699C68.039 15.4022 67.9672 16.1311 67.6928 16.7935C67.4184 17.4559 66.9538 18.022 66.3577 18.4203C65.7616 18.8186 65.0607 19.0312 64.3438 19.0312C63.3823 19.0312 62.4603 18.6493 61.7805 17.9695C61.1007 17.2897 60.7188 16.3677 60.7188 15.4062ZM77.0312 19.0312C76.3143 19.0312 75.6134 18.8186 75.0173 18.4203C74.4212 18.022 73.9566 17.4559 73.6822 16.7935C73.4078 16.1311 73.336 15.4022 73.4759 14.699C73.6158 13.9959 73.961 13.35 74.468 12.843C74.9749 12.336 75.6209 11.9908 76.324 11.8509C77.0272 11.711 77.7561 11.7828 78.4185 12.0572C79.0809 12.3316 79.647 12.7962 80.0453 13.3923C80.4436 13.9884 80.6562 14.6893 80.6562 15.4062C80.6562 16.3677 80.2743 17.2897 79.5945 17.9695C78.9147 18.6493 77.9927 19.0312 77.0312 19.0312Z" fill="#19B6D9"/>
  </g>
  <defs>
    <clipPath id="clip0_1_207">
      <rect width="87" height="87" fill="white"/>
    </clipPath>
  </defs>
</svg>