<svg xmlns="http://www.w3.org/2000/svg" width="87" height="87" viewBox="0 0 87 87" fill="none">
  <path d="M78.6988 31.5736C83.2301 27.0423 81.1638 21.7498 78.6988 19.1761L67.8238 8.30108C63.2563 3.76983 58.0001 5.83608 55.4263 8.30108L49.2638 14.4998H39.8751C32.9876 14.4998 29.0001 18.1248 26.9701 22.2936L10.8751 38.3886V52.8886L8.30133 55.4261C3.77008 59.9936 5.83633 65.2498 8.30133 67.8236L19.1763 78.6986C21.1338 80.6561 23.2363 81.3811 25.2301 81.3811C27.8038 81.3811 30.1601 80.1123 31.5738 78.6986L41.3613 68.8748H54.3751C60.5376 68.8748 63.6551 65.0323 64.7788 61.2623C68.8751 60.1748 71.1226 57.0573 72.0288 54.0123C77.6476 52.5623 79.7501 47.2336 79.7501 43.4998V32.6248H77.6113L78.6988 31.5736ZM72.5001 43.4998C72.5001 45.1311 71.8113 47.1248 68.8751 47.1248H65.2501V50.7498C65.2501 52.3811 64.5613 54.3748 61.6251 54.3748H58.0001V57.9998C58.0001 59.6311 57.3113 61.6248 54.3751 61.6248H38.3888L26.4988 73.5148C25.3751 74.5661 24.7226 73.9498 24.3238 73.5511L13.4851 62.7486C12.4338 61.6248 13.0501 60.9723 13.4488 60.5736L18.1251 55.8611V41.3611L25.3751 34.1111V39.8748C25.3751 44.2611 28.2751 50.7498 36.2501 50.7498C44.2251 50.7498 47.1251 44.2611 47.1251 39.8748H72.5001V43.4998ZM73.5513 26.4261L67.3888 32.6248H39.8751V39.8748C39.8751 41.5061 39.1863 43.4998 36.2501 43.4998C33.3138 43.4998 32.6251 41.5061 32.6251 39.8748V28.9998C32.6251 27.3323 33.2413 21.7498 39.8751 21.7498H52.2363L60.5013 13.4848C61.6251 12.4336 62.2776 13.0498 62.6763 13.4486L73.5151 24.2511C74.5663 25.3748 73.9501 26.0273 73.5513 26.4261Z" fill="#0468A6"/>
</svg>