<svg xmlns="http://www.w3.org/2000/svg" width="65" height="64" viewBox="0 0 65 64" fill="none">
  <g clip-path="url(#clip0_1_92)">
    <path d="M40.5 4H64.5V64H0.5V1.15625L40.5 41.1562V4ZM4.5 60H53.6562L4.5 10.8438V60ZM55.3438 56L59.3438 60H60.5V8H44.5V12H52.5V16H44.5V20H52.5V24H44.5V28H56.5V32H44.5V36H52.5V40H44.5V44H52.5V48H47.3438L51.3438 52H56.5V56H55.3438ZM12.5 33.1562L31.3438 52H12.5V33.1562ZM16.5 42.8438V48H21.6562L16.5 42.8438Z" fill="#0468A6"/>
  </g>
  <defs>
    <clipPath id="clip0_1_92">
      <rect width="64" height="64" fill="white" transform="translate(0.5)"/>
    </clipPath>
  </defs>
</svg>