<svg xmlns="http://www.w3.org/2000/svg" width="71" height="70" viewBox="0 0 71 70" fill="none">
  <g clip-path="url(#clip0_1_99)">
    <path d="M60.91 -0.169617C59.9004 -0.169617 58.9393 0.288076 58.1316 1.09577L56.1985 2.94538L67.5547 14.3015L69.407 12.3685C71.0224 10.7531 71.0224 8.34615 69.407 6.73077L63.7693 1.09308C62.9616 0.285383 61.9197 -0.169617 60.91 -0.169617ZM54.3462 4.54461L51.4008 6.98654L63.5162 19.1019L66.2085 16.4096L54.3462 4.54461ZM49.8016 8.91961L25.4901 32.9835C25.3672 33.0854 25.2537 33.198 25.1508 33.32L24.9839 33.4035C24.6927 33.7416 24.4901 34.1468 24.3943 34.5827L21.1124 46.1085C20.9717 46.5647 20.9581 47.0506 21.073 47.5139C21.188 47.9773 21.4271 48.4005 21.7647 48.7381C22.1022 49.0756 22.5255 49.3148 22.9888 49.4297C23.4522 49.5446 23.9381 49.531 24.3943 49.3904L35.9201 46.1085C36.3024 46.0168 36.6593 45.8409 36.9649 45.5935C37.2705 45.3462 37.5169 45.0337 37.6862 44.6788L61.5831 21.035L57.0385 16.1538V16.4069L53.84 13.2085H54.0931L49.8016 8.91961ZM2.6889 10.7692C2.06517 10.8879 1.50343 11.2231 1.10292 11.7157C0.702398 12.2084 0.488871 12.8267 0.500052 13.4615V67.3077C0.500052 68.0217 0.783705 68.7065 1.28861 69.2114C1.79352 69.7163 2.47831 70 3.19236 70H57.0385C57.7526 70 58.4374 69.7163 58.9423 69.2114C59.4472 68.7065 59.7308 68.0217 59.7308 67.3077V37.6923C59.7308 36.9783 59.4472 36.2935 58.9423 35.7886C58.4374 35.2837 57.7526 35 57.0385 35C56.3245 35 55.6397 35.2837 55.1348 35.7886C54.6299 36.2935 54.3462 36.9783 54.3462 37.6923V64.6154H5.88467V16.1538H32.8077C33.5218 16.1538 34.2066 15.8702 34.7115 15.3653C35.2164 14.8604 35.5001 14.1756 35.5001 13.4615C35.5001 12.7475 35.2164 12.0627 34.7115 11.5578C34.2066 11.0529 33.5218 10.7692 32.8077 10.7692H3.19236C3.10805 10.7653 3.02359 10.7653 2.93928 10.7692C2.85497 10.7653 2.77052 10.7653 2.68621 10.7692H2.6889ZM29.1085 37.1888L32.8104 37.4392L33.0635 41.4777L29.3616 42.5708L27.932 41.1438L29.1085 37.1888Z" fill="#0468A6"/>
  </g>
  <defs>
    <clipPath id="clip0_1_99">
      <rect width="70" height="70" fill="white" transform="translate(0.5)"/>
    </clipPath>
  </defs>
</svg>