<svg xmlns="http://www.w3.org/2000/svg" width="87" height="87" viewBox="0 0 87 87" fill="none">
  <path d="M66.9271 32.285C65.9052 33.3004 64.5231 33.8702 63.0826 33.8702C61.6421 33.8702 60.26 33.3004 59.2381 32.285L54.7233 27.7702C53.707 26.7485 53.1366 25.366 53.1366 23.9249C53.1366 22.4838 53.707 21.1013 54.7233 20.0795L64.9424 9.85534C64.9626 9.83589 64.9777 9.81173 64.9863 9.78503C64.9949 9.75833 64.9968 9.72991 64.9917 9.70231C64.9867 9.67472 64.9749 9.6488 64.9574 9.62688C64.9399 9.60495 64.9172 9.5877 64.8914 9.57667C58.2951 6.74917 49.7429 8.1901 44.3122 13.5817C39.116 18.7389 38.8203 26.4958 40.7234 33.2655C40.9938 34.2277 40.9932 35.246 40.7215 36.2079C40.4499 37.1698 39.9178 38.0379 39.1839 38.7166L10.875 64.5702C10.0397 65.3107 9.36481 66.2143 8.89167 67.2253C8.41853 68.2363 8.15717 69.3334 8.12368 70.4491C8.09019 71.5648 8.28526 72.6756 8.6969 73.7132C9.10855 74.7508 9.72807 75.6932 10.5174 76.4825C11.3067 77.2718 12.2491 77.8913 13.2866 78.3029C14.3242 78.7146 15.435 78.9096 16.5507 78.8762C17.6665 78.8427 18.7636 78.5813 19.7746 78.1082C20.7856 77.635 21.6891 76.9601 22.4297 76.1249L48.5738 47.7479C49.2438 47.0265 50.0976 46.5009 51.0435 46.2276C51.9894 45.9543 52.9918 45.9436 53.9434 46.1965C60.6621 47.996 68.3085 47.6579 73.4368 42.5959C78.9576 37.1584 80.1487 27.5476 77.4724 22.0472C77.4604 22.0232 77.4428 22.0024 77.4211 21.9864C77.3995 21.9705 77.3743 21.96 77.3478 21.9557C77.3212 21.9513 77.2941 21.9534 77.2685 21.9616C77.2429 21.9699 77.2196 21.9841 77.2006 22.0031L66.9271 32.285Z" stroke="#19B6D9" stroke-width="6" stroke-miterlimit="10" stroke-linecap="round"/>
  <path d="M16.3125 73.4062C17.814 73.4062 19.0312 72.189 19.0312 70.6875C19.0312 69.186 17.814 67.9688 16.3125 67.9688C14.811 67.9688 13.5938 69.186 13.5938 70.6875C13.5938 72.189 14.811 73.4062 16.3125 73.4062Z" fill="#19B6D9"/>
</svg>