<svg xmlns="http://www.w3.org/2000/svg" width="77" height="54" viewBox="0 0 77 54" fill="none">
  <path d="M38.5 16.5C41.2848 16.5 43.9555 17.6062 45.9246 19.5754C47.8938 21.5445 49 24.2152 49 27C49 29.7848 47.8938 32.4555 45.9246 34.4246C43.9555 36.3938 41.2848 37.5 38.5 37.5C35.7152 37.5 33.0445 36.3938 31.0754 34.4246C29.1062 32.4555 28 29.7848 28 27C28 24.2152 29.1062 21.5445 31.0754 19.5754C33.0445 17.6062 35.7152 16.5 38.5 16.5ZM38.5 0.75C56 0.75 70.945 11.635 77 27C70.945 42.365 56 53.25 38.5 53.25C21 53.25 6.055 42.365 0 27C6.055 11.635 21 0.75 38.5 0.75ZM7.63 27C10.4589 32.7761 14.8516 37.6426 20.3087 41.0464C25.7658 44.4502 32.0684 46.2546 38.5 46.2546C44.9316 46.2546 51.2342 44.4502 56.6913 41.0464C62.1484 37.6426 66.5411 32.7761 69.37 27C66.5411 21.2239 62.1484 16.3574 56.6913 12.9536C51.2342 9.54984 44.9316 7.74538 38.5 7.74538C32.0684 7.74538 25.7658 9.54984 20.3087 12.9536C14.8516 16.3574 10.4589 21.2239 7.63 27Z" fill="#27A5F2"/>
</svg>