<svg xmlns="http://www.w3.org/2000/svg" width="218" height="218" viewBox="0 0 218 218" fill="none">
  <path d="M159.445 157.548H191.927L192.211 133.154H173.855L159.445 157.548Z" fill="#0544FF"/>
  <path d="M148.415 122.407L194.936 45.082H107.888V69.4762H152.142L98.9067 157.548H127.225L149.592 157.483L164.111 133.154H141.94L148.415 122.407Z" fill="#24272C"/>
  <path d="M98.9286 45.082V122.886C98.9286 127.442 98.6452 131.17 98.0784 134.091C96.923 140.304 93.6312 145.907 88.1158 150.899C81.0308 157.374 72.3762 160.622 62.152 160.622C61.934 160.622 61.716 160.622 61.498 160.6C61.28 160.622 61.0402 160.622 60.8222 160.622C51.0558 160.622 42.7282 157.679 35.8394 151.749L37.1692 149.526L50.2492 127.857C51.7534 131.628 54.8272 134.026 58.0754 134.92C58.2934 135.007 58.5332 135.094 58.7512 135.138C58.773 135.138 58.8602 135.16 58.9038 135.16C59.1218 135.225 59.3398 135.247 59.5578 135.312C59.8848 135.378 60.19 135.399 60.517 135.443C60.844 135.465 61.1274 135.487 61.4326 135.487C61.7814 135.487 62.1084 135.465 62.4354 135.443C62.7624 135.421 63.0676 135.378 63.3946 135.312C67.1878 134.68 71.1118 132.129 72.7904 127.639C73.4008 126.113 73.706 124.369 73.6842 122.428L73.6188 116.259V45.082H98.9286Z" fill="#24272C"/>
  <path d="M49.3332 102.831V114.276L30.2364 145.93C27.446 142.245 25.6584 138.3 24.8518 134.07C24.3068 131.149 24.0234 127.421 24.0234 122.865V102.831H49.3332Z" fill="#0544FF"/>
</svg>