<?xml version="1.0" encoding="utf-8"?>
<!-- Generator: Adobe Illustrator 24.0.0, SVG Export Plug-In . SVG Version: 6.00 Build 0)  -->
<svg version="1.1" id="Layer_1" xmlns="http://www.w3.org/2000/svg" xmlns:xlink="http://www.w3.org/1999/xlink" x="0px" y="0px"
	 viewBox="0 0 150 36.53" style="enable-background:new 0 0 150 36.53;" xml:space="preserve">
<style type="text/css">
	.st0{fill:#FFFFFF;}
	.st1{fill:#0544FF;}
	.st2{fill:#24272C;}
	.st3{fill:#111111;}
	.st4{fill:#C1C1C1;}
	.st5{fill:none;stroke:#111111;stroke-width:0.2;stroke-miterlimit:10;}
	.st6{fill:none;stroke:#FFFFFF;stroke-width:0.1;stroke-miterlimit:10;}
	.st7{fill:#0366FF;}
	.st8{fill:#FFFFFF;stroke:#FFFFFF;stroke-width:0.3;stroke-miterlimit:10;}
	.st9{fill:none;stroke:#CCCCCC;stroke-width:0.1;stroke-miterlimit:10;}
	.st10{fill:none;stroke:#0544FF;stroke-width:3.15;stroke-miterlimit:10;}
	.st11{fill:#AF881B;}
</style>
<g>
	<polygon class="st0" points="36.8,27.96 43,27.96 38.46,35.57 32.21,35.58 23.37,35.58 39.99,8.09 26.17,8.09 26.17,0.48 
		53.33,0.48 38.83,24.6 	"/>
	<polygon class="st0" points="41.16,35.58 51.3,35.58 51.39,27.97 45.66,27.97 	"/>
	<path class="st0" d="M23.37,0.48v24.28c0,1.42-0.09,2.58-0.27,3.5c-0.36,1.94-1.39,3.69-3.11,5.25c-2.21,2.02-4.91,3.03-8.1,3.03
		c-0.07,0-0.14,0-0.21-0.01c-0.07,0.01-0.14,0.01-0.21,0.01c-3.05,0-5.65-0.92-7.8-2.77l0.42-0.69l4.08-6.77
		c0.47,1.18,1.43,1.92,2.44,2.2c0.07,0.03,0.14,0.05,0.21,0.07c0.02,0.01,0.04,0.02,0.05,0.02c0.07,0.02,0.14,0.03,0.21,0.05
		c0.1,0.02,0.2,0.03,0.3,0.04c0.1,0.01,0.19,0.02,0.29,0.02c0.11,0,0.21-0.01,0.31-0.02c0.1-0.01,0.2-0.02,0.3-0.04
		c1.19-0.2,2.41-1,2.93-2.39c0.19-0.48,0.29-1.02,0.28-1.63l-0.02-1.92V0.48H23.37z"/>
	<path class="st0" d="M7.9,18.5v3.57l-5.96,9.88c-0.87-1.15-1.43-2.38-1.68-3.7C0.09,27.34,0,26.18,0,24.76V18.5H7.9z"/>
	<g>
		<path class="st0" d="M72.82,0.69c-0.83-0.43-1.76-0.65-2.81-0.68L64.01,0L61.2,16.2h3.53l0.98-5.63l2.86,0.01
			c1.11,0,2.15-0.19,3.14-0.57c0.99-0.38,1.8-0.96,2.45-1.74c0.65-0.78,1.02-1.76,1.12-2.96c0.09-1.1-0.09-2.03-0.54-2.81
			C74.29,1.73,73.65,1.12,72.82,0.69z M71.71,5.34c-0.08,0.54-0.25,0.98-0.53,1.33c-0.28,0.35-0.63,0.62-1.06,0.81
			c-0.43,0.18-0.91,0.28-1.43,0.28L66.2,7.76l0.86-4.94l2.85,0.01c0.48,0.03,0.87,0.15,1.16,0.38c0.29,0.24,0.49,0.54,0.6,0.91
			C71.76,4.48,71.78,4.89,71.71,5.34z"/>
		<path class="st0" d="M83.69,3.95c-0.18-0.03-0.37-0.04-0.55-0.04c-0.71,0-1.31,0.17-1.8,0.52c-0.32,0.23-0.59,0.53-0.84,0.86
			l0.11-1.12h-3.17L75.35,16.2h3.39l1.32-7.6c0.16-0.3,0.36-0.56,0.6-0.77c0.25-0.21,0.54-0.38,0.88-0.48
			c0.34-0.11,0.72-0.16,1.14-0.15c0.19,0,0.38,0.01,0.57,0.03c0.19,0.02,0.37,0.05,0.57,0.08l0.43-3.24
			C84.06,4.01,83.87,3.98,83.69,3.95z"/>
		<path class="st0" d="M93.96,5.75c-0.37-0.55-0.86-0.98-1.47-1.3c-0.6-0.33-1.33-0.49-2.16-0.51c-0.91-0.02-1.74,0.13-2.47,0.45
			c-0.74,0.32-1.38,0.77-1.92,1.35c-0.54,0.59-0.97,1.25-1.3,2.01c-0.32,0.76-0.53,1.57-0.62,2.42l-0.04,0.43
			c-0.06,0.82,0.02,1.59,0.23,2.28c0.22,0.7,0.55,1.31,1.01,1.83c0.46,0.52,1.03,0.93,1.7,1.23c0.67,0.3,1.42,0.45,2.25,0.47
			c0.58,0.01,1.17-0.06,1.76-0.21c0.6-0.15,1.16-0.38,1.67-0.7c0.52-0.31,0.95-0.72,1.29-1.23l-1.47-1.86
			c-0.39,0.4-0.84,0.72-1.33,0.96c-0.49,0.24-1.02,0.35-1.6,0.33c-0.44-0.01-0.8-0.11-1.1-0.3c-0.29-0.18-0.52-0.42-0.69-0.71
			c-0.17-0.29-0.28-0.62-0.33-0.98c-0.02-0.15-0.01-0.31-0.02-0.47h7.25l0.2-1.43c0.08-0.77,0.05-1.51-0.09-2.21
			C94.59,6.92,94.33,6.3,93.96,5.75z M91.57,9.03l-3.95-0.01c0.01-0.02,0.01-0.04,0.01-0.06c0.11-0.42,0.26-0.81,0.46-1.17
			c0.2-0.36,0.46-0.64,0.79-0.86c0.33-0.21,0.73-0.31,1.22-0.31c0.41,0.01,0.74,0.12,0.99,0.31c0.25,0.2,0.41,0.45,0.5,0.76
			c0.09,0.31,0.11,0.66,0.06,1.05L91.57,9.03z"/>
		<path class="st0" d="M100.76,6.45c0.26-0.1,0.51-0.15,0.77-0.14c0.33,0,0.6,0.06,0.81,0.19c0.21,0.12,0.36,0.3,0.46,0.52
			c0.09,0.23,0.14,0.5,0.13,0.81l3.37,0.01c0-0.88-0.22-1.6-0.66-2.17c-0.44-0.57-1.01-1.01-1.72-1.29
			c-0.71-0.28-1.46-0.43-2.26-0.44c-0.59-0.01-1.17,0.06-1.76,0.21c-0.59,0.15-1.13,0.39-1.63,0.71c-0.5,0.31-0.9,0.72-1.21,1.2
			c-0.31,0.48-0.48,1.05-0.51,1.71c-0.02,0.54,0.07,1.01,0.29,1.41c0.21,0.4,0.5,0.74,0.86,1.03c0.36,0.28,0.76,0.51,1.21,0.7
			c0.45,0.18,0.9,0.33,1.35,0.44c0.22,0.06,0.5,0.14,0.84,0.23c0.34,0.09,0.63,0.23,0.87,0.42c0.24,0.18,0.33,0.45,0.26,0.78
			c-0.06,0.3-0.19,0.54-0.39,0.72c-0.2,0.19-0.44,0.33-0.71,0.42c-0.28,0.08-0.55,0.13-0.83,0.13c-0.37-0.01-0.68-0.08-0.94-0.21
			c-0.26-0.13-0.46-0.31-0.59-0.57c-0.14-0.25-0.2-0.55-0.21-0.93l-3.16-0.01c0.02,0.88,0.25,1.61,0.69,2.22
			c0.44,0.6,1.03,1.06,1.75,1.37c0.72,0.31,1.48,0.48,2.29,0.49c0.58,0.01,1.18-0.06,1.79-0.2c0.62-0.13,1.2-0.35,1.73-0.65
			c0.53-0.3,0.97-0.69,1.31-1.17c0.34-0.48,0.53-1.06,0.56-1.75c0.02-0.8-0.17-1.44-0.57-1.93c-0.4-0.49-0.92-0.87-1.54-1.13
			c-0.63-0.27-1.27-0.48-1.93-0.65c-0.17-0.04-0.36-0.08-0.57-0.15c-0.21-0.06-0.41-0.13-0.6-0.23c-0.19-0.09-0.34-0.21-0.44-0.37
			c-0.11-0.16-0.14-0.35-0.09-0.58c0.04-0.28,0.16-0.52,0.34-0.71C100.28,6.7,100.5,6.56,100.76,6.45z"/>
		<path class="st0" d="M112.1,6.45c0.26-0.1,0.51-0.15,0.77-0.14c0.33,0,0.6,0.06,0.81,0.19c0.21,0.12,0.36,0.3,0.46,0.52
			c0.09,0.23,0.14,0.5,0.13,0.81l3.37,0.01c0-0.88-0.22-1.6-0.66-2.17c-0.44-0.57-1.01-1.01-1.72-1.29
			c-0.71-0.28-1.46-0.43-2.26-0.44c-0.59-0.01-1.17,0.06-1.76,0.21c-0.59,0.15-1.13,0.39-1.63,0.71c-0.5,0.31-0.9,0.72-1.21,1.2
			c-0.31,0.48-0.48,1.05-0.51,1.71c-0.02,0.54,0.07,1.01,0.29,1.41c0.21,0.4,0.5,0.74,0.86,1.03c0.36,0.28,0.76,0.51,1.21,0.7
			c0.45,0.18,0.9,0.33,1.35,0.44c0.22,0.06,0.5,0.14,0.84,0.23c0.34,0.09,0.63,0.23,0.87,0.42c0.24,0.18,0.33,0.45,0.26,0.78
			c-0.06,0.3-0.19,0.54-0.39,0.72c-0.2,0.19-0.44,0.33-0.71,0.42c-0.28,0.08-0.55,0.13-0.83,0.13c-0.37-0.01-0.68-0.08-0.94-0.21
			c-0.26-0.13-0.46-0.31-0.59-0.57c-0.14-0.25-0.2-0.55-0.21-0.93l-3.16-0.01c0.02,0.88,0.25,1.61,0.69,2.22
			c0.44,0.6,1.03,1.06,1.75,1.37c0.72,0.31,1.48,0.48,2.29,0.49c0.58,0.01,1.18-0.06,1.79-0.2c0.62-0.13,1.2-0.35,1.73-0.65
			c0.53-0.3,0.97-0.69,1.31-1.17c0.34-0.48,0.53-1.06,0.56-1.75c0.02-0.8-0.17-1.44-0.57-1.93c-0.4-0.49-0.92-0.87-1.54-1.13
			c-0.63-0.27-1.27-0.48-1.93-0.65c-0.17-0.04-0.36-0.08-0.57-0.15c-0.21-0.06-0.41-0.13-0.6-0.23c-0.19-0.09-0.34-0.21-0.44-0.37
			c-0.11-0.16-0.14-0.35-0.09-0.58c0.04-0.28,0.16-0.52,0.34-0.71C111.63,6.7,111.85,6.56,112.1,6.45z"/>
		<path class="st0" d="M125.54,12.55c-0.19,0.32-0.42,0.59-0.72,0.8c-0.38,0.27-0.87,0.39-1.47,0.36c-0.27-0.01-0.48-0.06-0.65-0.15
			c-0.17-0.09-0.3-0.21-0.38-0.37c-0.09-0.16-0.14-0.34-0.17-0.55c-0.03-0.21-0.03-0.42,0-0.65l1.32-7.83h-3.39l-1.3,7.79
			c-0.06,0.6-0.04,1.17,0.05,1.7c0.09,0.54,0.27,1.01,0.54,1.43c0.27,0.42,0.63,0.74,1.09,0.98c0.45,0.24,1.01,0.37,1.67,0.38
			c0.8,0.01,1.5-0.14,2.08-0.45c0.4-0.22,0.73-0.5,1.04-0.81l-0.1,1.03h3.17l2.09-12.04H127L125.54,12.55z"/>
		<path class="st0" d="M138.83,3.95c-0.18-0.03-0.37-0.04-0.55-0.04c-0.71,0-1.31,0.17-1.8,0.52c-0.32,0.23-0.59,0.53-0.84,0.86
			l0.11-1.12h-3.17l-2.09,12.04h3.39l1.32-7.6c0.16-0.3,0.36-0.56,0.6-0.77c0.25-0.21,0.54-0.38,0.88-0.48
			c0.34-0.11,0.72-0.16,1.14-0.15c0.19,0,0.38,0.01,0.57,0.03c0.19,0.02,0.37,0.05,0.57,0.08l0.42-3.24
			C139.19,4.01,139.01,3.98,138.83,3.95z"/>
		<path class="st0" d="M149.87,7.62c-0.14-0.7-0.4-1.32-0.77-1.87c-0.37-0.55-0.86-0.98-1.47-1.3c-0.6-0.33-1.33-0.49-2.16-0.51
			c-0.91-0.02-1.74,0.13-2.47,0.45c-0.74,0.32-1.38,0.77-1.92,1.35c-0.54,0.59-0.97,1.25-1.3,2.01c-0.32,0.76-0.53,1.57-0.62,2.42
			l-0.04,0.43c-0.06,0.82,0.02,1.59,0.23,2.28c0.22,0.7,0.55,1.31,1.01,1.83c0.46,0.52,1.03,0.93,1.7,1.23
			c0.67,0.3,1.42,0.45,2.25,0.47c0.58,0.01,1.17-0.06,1.76-0.21c0.6-0.15,1.16-0.38,1.67-0.7c0.52-0.31,0.95-0.72,1.29-1.23
			l-1.47-1.86c-0.39,0.4-0.84,0.72-1.33,0.96c-0.49,0.24-1.02,0.35-1.6,0.33c-0.44-0.01-0.8-0.11-1.1-0.3
			c-0.29-0.18-0.52-0.42-0.69-0.71c-0.17-0.29-0.28-0.62-0.33-0.98c-0.02-0.15-0.01-0.31-0.02-0.47h7.25l0.2-1.43
			C150.04,9.05,150.01,8.32,149.87,7.62z M146.71,9.03l-3.95-0.01c0.01-0.02,0.01-0.04,0.01-0.06c0.11-0.42,0.26-0.81,0.46-1.17
			c0.2-0.36,0.46-0.64,0.79-0.86c0.33-0.21,0.73-0.31,1.22-0.31c0.41,0.01,0.74,0.12,0.99,0.31c0.25,0.2,0.41,0.45,0.5,0.76
			c0.09,0.31,0.11,0.66,0.06,1.05L146.71,9.03z"/>
	</g>
	<g>
		<path class="st0" d="M69.19,20.3c-0.79-0.4-1.68-0.62-2.68-0.64l-5.82-0.01l-2.81,16.2h2.74l1.05-6.04l3.4,0
			c1.08,0,2.09-0.18,3.04-0.54c0.94-0.37,1.72-0.93,2.33-1.69c0.61-0.76,0.96-1.72,1.06-2.88c0.09-1.05-0.08-1.94-0.49-2.68
			C70.58,21.27,69.98,20.7,69.19,20.3z M68.76,24.72c-0.08,0.65-0.29,1.19-0.63,1.61c-0.34,0.43-0.76,0.74-1.28,0.96
			c-0.52,0.21-1.08,0.31-1.7,0.31l-3.11-0.01l0.99-5.72l3.39,0.01c0.56,0.02,1.03,0.15,1.4,0.4c0.37,0.24,0.64,0.57,0.8,0.99
			C68.8,23.69,68.84,24.17,68.76,24.72z"/>
		<path class="st0" d="M79.44,23.6c-0.17-0.03-0.34-0.04-0.51-0.04c-0.72-0.02-1.33,0.15-1.84,0.48c-0.35,0.23-0.64,0.53-0.9,0.86
			l0.13-1.09h-2.48l-2.09,12.04h2.61l1.41-8.11c0.18-0.34,0.41-0.63,0.67-0.87c0.27-0.25,0.6-0.43,0.96-0.57
			c0.36-0.13,0.77-0.2,1.22-0.19c0.17,0,0.34,0.01,0.52,0.04c0.17,0.02,0.35,0.04,0.52,0.08l0.29-2.5
			C79.78,23.66,79.61,23.63,79.44,23.6z"/>
		<path class="st0" d="M89.75,25.48c-0.39-0.57-0.89-1.02-1.51-1.36c-0.62-0.34-1.36-0.52-2.22-0.54c-0.89-0.02-1.7,0.13-2.42,0.46
			c-0.72,0.32-1.35,0.78-1.88,1.36c-0.53,0.58-0.95,1.25-1.27,2c-0.32,0.75-0.52,1.54-0.61,2.37l-0.03,0.26
			c-0.07,0.78-0.02,1.52,0.13,2.24c0.16,0.72,0.43,1.35,0.82,1.92c0.39,0.56,0.89,1.01,1.51,1.35c0.62,0.34,1.36,0.52,2.21,0.53
			c0.88,0.02,1.68-0.13,2.41-0.45c0.72-0.32,1.35-0.77,1.88-1.35c0.53-0.57,0.96-1.23,1.28-1.98c0.32-0.74,0.53-1.52,0.63-2.35
			l0.02-0.26c0.07-0.79,0.03-1.54-0.12-2.26C90.41,26.7,90.14,26.05,89.75,25.48z M88.07,29.68l-0.02,0.26
			c-0.05,0.46-0.16,0.93-0.32,1.4c-0.16,0.48-0.38,0.92-0.65,1.32c-0.27,0.4-0.62,0.72-1.02,0.96c-0.41,0.23-0.89,0.35-1.44,0.33
			c-0.52-0.02-0.94-0.15-1.25-0.4c-0.31-0.25-0.54-0.57-0.69-0.97c-0.15-0.39-0.24-0.81-0.27-1.27c-0.03-0.45-0.03-0.88,0.01-1.29
			l0.02-0.26c0.06-0.46,0.17-0.93,0.33-1.41c0.16-0.48,0.38-0.93,0.65-1.33c0.27-0.41,0.61-0.73,1.02-0.98
			c0.41-0.24,0.89-0.35,1.45-0.33c0.52,0.01,0.94,0.15,1.25,0.4c0.31,0.26,0.54,0.59,0.69,0.99s0.24,0.84,0.27,1.29
			C88.12,28.86,88.11,29.28,88.07,29.68z"/>
		<path class="st0" d="M99.52,29.41c-0.61-0.26-1.23-0.48-1.86-0.65c-0.2-0.04-0.42-0.11-0.67-0.18c-0.25-0.07-0.48-0.16-0.71-0.27
			c-0.22-0.11-0.4-0.26-0.52-0.44c-0.13-0.18-0.17-0.41-0.12-0.69c0.05-0.37,0.19-0.67,0.42-0.9c0.23-0.24,0.51-0.42,0.83-0.54
			c0.32-0.12,0.65-0.18,0.98-0.17c0.39,0.01,0.72,0.09,0.99,0.23c0.27,0.15,0.48,0.36,0.63,0.63c0.14,0.27,0.21,0.59,0.2,0.96
			l2.6,0.01c0.01-0.83-0.19-1.53-0.58-2.09c-0.4-0.57-0.93-0.99-1.58-1.28c-0.66-0.29-1.38-0.44-2.15-0.46
			c-0.56-0.01-1.11,0.06-1.68,0.21c-0.57,0.14-1.08,0.38-1.55,0.69c-0.47,0.31-0.86,0.71-1.15,1.17c-0.3,0.47-0.46,1.01-0.49,1.63
			c-0.02,0.54,0.08,1.01,0.29,1.4c0.22,0.39,0.51,0.72,0.88,0.98c0.37,0.27,0.78,0.49,1.23,0.67c0.45,0.17,0.9,0.31,1.35,0.43
			c0.3,0.07,0.62,0.17,0.98,0.29c0.36,0.11,0.65,0.29,0.89,0.52c0.24,0.23,0.32,0.54,0.27,0.95c-0.07,0.38-0.23,0.68-0.48,0.91
			c-0.25,0.23-0.56,0.39-0.91,0.49s-0.7,0.15-1.05,0.15c-0.42-0.01-0.79-0.09-1.11-0.24c-0.31-0.15-0.56-0.38-0.73-0.67
			c-0.18-0.3-0.26-0.66-0.26-1.09l-2.53-0.01c0,0.86,0.21,1.57,0.63,2.17c0.42,0.59,0.98,1.04,1.67,1.35
			c0.69,0.31,1.43,0.47,2.22,0.49c0.57,0.01,1.15-0.06,1.74-0.2c0.59-0.15,1.13-0.37,1.63-0.67c0.49-0.3,0.9-0.69,1.22-1.15
			c0.32-0.47,0.49-1.03,0.51-1.69c0.03-0.76-0.14-1.38-0.52-1.85C100.63,30.04,100.13,29.67,99.52,29.41z"/>
	</g>
</g>
</svg>
