<svg xmlns="http://www.w3.org/2000/svg" width="218" height="218" viewBox="0 0 218 218" fill="none">
  <path d="M159.445 157.548H191.927L192.211 133.154H173.855L159.445 157.548Z" fill="#0544FF"/>
  <path d="M148.415 122.407L194.936 45.082H107.888V69.4762H152.142L98.9067 157.548H127.225L149.592 157.483L164.111 133.154H141.94L148.415 122.407Z" fill="#24272C"/>
  <path d="M98.9286 45.082V122.886C98.9286 127.442 98.6452 131.17 98.0784 134.091C96.923 140.304 93.6312 145.907 88.1158 150.899C81.0308 157.374 72.3762 160.622 62.152 160.622C61.934 160.622 61.716 160.622 61.498 160.6C61.28 160.622 61.0402 160.622 60.8222 160.622C51.0558 160.622 42.7282 157.679 35.8394 151.749L37.1692 149.526L50.2492 127.857C51.7534 131.628 54.8272 134.026 58.0754 134.92C58.2934 135.007 58.5332 135.094 58.7512 135.138C58.773 135.138 58.8602 135.16 58.9038 135.16C59.1218 135.225 59.3398 135.247 59.5578 135.312C59.8848 135.378 60.19 135.399 60.517 135.443C60.844 135.465 61.1274 135.487 61.4326 135.487C61.7814 135.487 62.1084 135.465 62.4354 135.443C62.7624 135.421 63.0676 135.378 63.3946 135.312C67.1878 134.68 71.1118 132.129 72.7904 127.639C73.4008 126.113 73.706 124.369 73.6842 122.428L73.6188 116.259V45.082H98.9286Z" fill="#24272C"/>
  <path d="M49.3332 102.831V114.276L30.2364 145.93C27.446 142.245 25.6584 138.3 24.8518 134.07C24.3068 131.149 24.0234 127.421 24.0234 122.865V102.831H49.3332Z" fill="#0544FF"/>
  <path d="M37.8013 168.187C36.7767 167.664 35.6213 167.381 34.3351 167.337H26.9013L23.4351 187.393H27.7951L29.0159 180.439H32.5475C33.9209 180.439 35.2071 180.199 36.4279 179.741C37.6487 179.283 38.6515 178.564 39.4581 177.583C40.2647 176.624 40.7225 175.403 40.8315 173.921C40.9405 172.569 40.7225 171.392 40.1557 170.433C39.6107 169.473 38.8259 168.71 37.8013 168.187ZM36.4279 173.942C36.3407 174.596 36.1227 175.141 35.7739 175.599C35.4251 176.035 34.9891 176.362 34.4659 176.602C33.9427 176.82 33.3323 176.951 32.7001 176.951H29.6045L30.6727 170.825H34.2043C34.8147 170.847 35.2725 171.021 35.6431 171.305C35.9919 171.61 36.2535 171.98 36.3843 172.416C36.4933 172.874 36.5151 173.397 36.4279 173.942Z" fill="#0544FF"/>
  <path d="M51.2517 172.22C51.0337 172.176 50.7939 172.154 50.5759 172.154C49.7039 172.154 48.9409 172.372 48.3523 172.786C47.9599 173.07 47.6111 173.44 47.3059 173.855L47.4367 172.459H43.5127L40.9185 187.371H45.1259L46.7609 177.953C46.9571 177.582 47.1969 177.255 47.5021 176.994C47.8073 176.732 48.1779 176.536 48.5921 176.384C49.0063 176.253 49.4859 176.187 50.0091 176.187C50.2489 176.187 50.4887 176.209 50.7067 176.231C50.9465 176.253 51.1645 176.296 51.4043 176.34L51.9275 172.329C51.7095 172.285 51.4697 172.263 51.2517 172.22Z" fill="#0544FF"/>
  <path d="M63.9615 174.443C63.5037 173.768 62.8933 173.223 62.1521 172.83C61.4109 172.416 60.5171 172.22 59.4707 172.198C58.3371 172.176 57.3125 172.351 56.3969 172.765C55.4813 173.157 54.6965 173.724 54.0207 174.443C53.3449 175.163 52.8217 175.991 52.4075 176.929C52.0151 177.866 51.7535 178.869 51.6445 179.937L51.6009 180.482C51.5355 181.507 51.6227 182.444 51.8843 183.294C52.1459 184.166 52.5601 184.908 53.1487 185.562C53.7155 186.216 54.4131 186.717 55.2415 187.088C56.0699 187.458 57.0073 187.654 58.0319 187.654C58.7513 187.654 59.4707 187.567 60.2119 187.393C60.9531 187.197 61.6507 186.913 62.2829 186.521C62.9369 186.128 63.4601 185.627 63.8743 184.995L62.0649 182.684C61.5853 183.185 61.0185 183.578 60.4081 183.861C59.7977 184.166 59.1437 184.297 58.4243 184.275C57.8793 184.254 57.4215 184.145 57.0727 183.905C56.7021 183.687 56.4187 183.382 56.2225 183.033C56.0263 182.684 55.8737 182.27 55.8083 181.812C55.7865 181.616 55.8083 181.42 55.7865 181.245H64.7681L65.0079 179.479C65.1169 178.52 65.0733 177.605 64.8989 176.733C64.7463 175.904 64.4411 175.119 63.9615 174.443ZM61.0185 178.498H56.1135C56.1135 178.476 56.1135 178.455 56.1353 178.433C56.2661 177.91 56.4623 177.43 56.7021 176.972C56.9419 176.536 57.2689 176.188 57.6831 175.904C58.0973 175.643 58.5769 175.512 59.1873 175.512C59.6887 175.534 60.1029 175.664 60.4081 175.904C60.7133 176.144 60.9095 176.449 61.0185 176.842C61.1275 177.234 61.1493 177.67 61.0839 178.128L61.0185 178.498Z" fill="#0544FF"/>
  <path d="M72.3761 175.315C72.7031 175.185 73.0083 175.119 73.3353 175.141C73.7495 175.141 74.0765 175.228 74.3381 175.381C74.5997 175.533 74.7741 175.751 74.9049 176.035C75.0139 176.318 75.0793 176.667 75.0793 177.038L79.2649 177.059C79.2649 175.969 78.9815 175.076 78.4365 174.378C77.8915 173.659 77.1721 173.135 76.3001 172.787C75.4281 172.438 74.4907 172.242 73.4879 172.242C72.7685 172.22 72.0273 172.307 71.3079 172.503C70.5667 172.699 69.9127 172.983 69.2805 173.375C68.6701 173.768 68.1687 174.269 67.7981 174.858C67.4057 175.446 67.2095 176.166 67.1659 176.972C67.1441 177.648 67.2531 178.215 67.5147 178.716C67.7763 179.218 68.1251 179.632 68.5829 179.981C69.0189 180.329 69.5203 180.613 70.0871 180.853C70.6321 181.071 71.1989 181.267 71.7657 181.398C72.0491 181.485 72.3979 181.572 72.8121 181.681C73.2263 181.79 73.5969 181.964 73.8803 182.204C74.1855 182.422 74.2945 182.749 74.2073 183.163C74.1419 183.534 73.9675 183.817 73.7277 184.057C73.4879 184.297 73.1827 184.471 72.8557 184.58C72.5069 184.689 72.1799 184.733 71.8311 184.733C71.3733 184.733 71.0027 184.646 70.6757 184.471C70.3487 184.319 70.1089 184.079 69.9563 183.774C69.7819 183.469 69.6947 183.098 69.6947 182.618L65.7925 182.597C65.8143 183.687 66.0977 184.602 66.6427 185.343C67.1877 186.085 67.9071 186.651 68.8009 187.044C69.6947 187.436 70.6321 187.632 71.6349 187.654C72.3543 187.654 73.0955 187.589 73.8585 187.414C74.6215 187.24 75.3409 186.978 75.9949 186.608C76.6489 186.237 77.1939 185.758 77.6081 185.147C78.0223 184.537 78.2621 183.839 78.3057 182.989C78.3275 182.008 78.1095 181.201 77.6081 180.591C77.1067 179.981 76.4745 179.523 75.6897 179.196C74.9049 178.869 74.1201 178.585 73.2917 178.389C73.0737 178.346 72.8339 178.28 72.5723 178.215C72.3107 178.149 72.0709 178.04 71.8311 177.931C71.5913 177.822 71.4169 177.67 71.2861 177.474C71.1553 177.277 71.1117 177.038 71.1771 176.754C71.2425 176.405 71.3733 176.122 71.5913 175.882C71.8093 175.621 72.0709 175.446 72.3761 175.315Z" fill="#0544FF"/>
  <path d="M86.4371 175.315C86.7641 175.185 87.0693 175.119 87.3963 175.141C87.8105 175.141 88.1375 175.228 88.3991 175.381C88.6607 175.533 88.8351 175.751 88.9659 176.035C89.0749 176.318 89.1403 176.667 89.1403 177.038L93.3259 177.059C93.3259 175.969 93.0425 175.076 92.4975 174.378C91.9525 173.659 91.2331 173.135 90.3611 172.787C89.4891 172.438 88.5517 172.242 87.5489 172.242C86.8295 172.22 86.0883 172.307 85.3689 172.503C84.6277 172.699 83.9737 172.983 83.3415 173.375C82.7311 173.768 82.2297 174.269 81.8591 174.858C81.4667 175.446 81.2705 176.166 81.2269 176.972C81.2051 177.648 81.3141 178.215 81.5757 178.716C81.8373 179.218 82.1861 179.632 82.6439 179.981C83.0799 180.329 83.5813 180.613 84.1481 180.853C84.6931 181.071 85.2599 181.267 85.8267 181.398C86.1101 181.485 86.4589 181.572 86.8731 181.681C87.2873 181.79 87.6579 181.964 87.9413 182.204C88.2465 182.422 88.3555 182.749 88.2683 183.163C88.2029 183.534 88.0285 183.817 87.7887 184.057C87.5489 184.297 87.2437 184.471 86.9167 184.58C86.5679 184.689 86.2409 184.733 85.8921 184.733C85.4343 184.733 85.0637 184.646 84.7367 184.471C84.4097 184.319 84.1699 184.079 84.0173 183.774C83.8429 183.469 83.7557 183.098 83.7557 182.618L79.8535 182.597C79.8753 183.687 80.1587 184.602 80.7037 185.343C81.2487 186.085 81.9681 186.651 82.8619 187.044C83.7557 187.436 84.6931 187.632 85.6959 187.654C86.4153 187.654 87.1565 187.589 87.9195 187.414C88.6825 187.24 89.4019 186.978 90.0559 186.608C90.7099 186.237 91.2549 185.758 91.6691 185.147C92.0833 184.537 92.3231 183.839 92.3667 182.989C92.3885 182.008 92.1705 181.201 91.6691 180.591C91.1677 179.981 90.5355 179.523 89.7507 179.196C88.9659 178.869 88.1811 178.585 87.3527 178.389C87.1347 178.346 86.8949 178.28 86.6333 178.215C86.3717 178.149 86.1319 178.04 85.8921 177.931C85.6523 177.822 85.4779 177.67 85.3471 177.474C85.2163 177.277 85.1727 177.038 85.2381 176.754C85.3035 176.405 85.4343 176.122 85.6523 175.882C85.8485 175.621 86.1101 175.446 86.4371 175.315Z" fill="#0544FF"/>
  <path d="M103.07 182.88C102.83 183.273 102.547 183.622 102.176 183.883C101.697 184.21 101.086 184.363 100.345 184.319C100.018 184.319 99.7348 184.254 99.5386 184.123C99.3424 184.014 99.168 183.861 99.059 183.665C98.95 183.469 98.8846 183.251 98.841 182.989C98.8192 182.728 98.8192 182.466 98.841 182.183L100.476 172.482H96.2686L94.6554 182.117C94.59 182.859 94.6118 183.578 94.7208 184.232C94.8298 184.886 95.0696 185.496 95.3966 185.998C95.7236 186.521 96.1814 186.913 96.7482 187.197C97.315 187.502 97.9908 187.655 98.8192 187.655C99.8002 187.676 100.672 187.48 101.392 187.088C101.871 186.826 102.307 186.477 102.678 186.085L102.547 187.371H106.471L109.065 172.46H104.858L103.07 182.88Z" fill="#0544FF"/>
  <path d="M119.529 172.22C119.311 172.176 119.072 172.154 118.854 172.154C117.982 172.154 117.219 172.372 116.63 172.786C116.238 173.07 115.889 173.44 115.584 173.855L115.714 172.459H111.79L109.196 187.371H113.404L115.039 177.953C115.235 177.582 115.475 177.255 115.78 176.994C116.085 176.732 116.456 176.536 116.87 176.384C117.284 176.253 117.764 176.187 118.287 176.187C118.527 176.187 118.766 176.209 118.984 176.231C119.224 176.253 119.442 176.296 119.682 176.34L120.205 172.329C119.965 172.285 119.747 172.263 119.529 172.22Z" fill="#0544FF"/>
  <path d="M133.198 176.754C133.024 175.882 132.697 175.119 132.239 174.443C131.781 173.768 131.171 173.223 130.43 172.83C129.688 172.416 128.795 172.22 127.748 172.198C126.615 172.176 125.59 172.351 124.674 172.765C123.759 173.157 122.974 173.724 122.298 174.443C121.622 175.163 121.099 175.991 120.685 176.929C120.293 177.866 120.031 178.869 119.922 179.937L119.857 180.482C119.791 181.507 119.878 182.444 120.14 183.294C120.402 184.166 120.816 184.908 121.404 185.562C121.971 186.216 122.669 186.717 123.497 187.088C124.326 187.458 125.263 187.654 126.288 187.654C127.007 187.654 127.726 187.567 128.468 187.393C129.209 187.197 129.906 186.913 130.539 186.521C131.193 186.128 131.716 185.627 132.13 184.995L130.321 182.684C129.841 183.185 129.274 183.578 128.664 183.861C128.053 184.166 127.399 184.297 126.68 184.275C126.135 184.254 125.677 184.145 125.328 183.905C124.958 183.687 124.674 183.382 124.478 183.033C124.282 182.684 124.129 182.27 124.064 181.812C124.042 181.616 124.064 181.42 124.042 181.245H133.024L133.264 179.479C133.394 178.542 133.373 177.626 133.198 176.754ZM129.274 178.498H124.369C124.369 178.476 124.369 178.455 124.391 178.433C124.522 177.91 124.718 177.43 124.958 176.972C125.198 176.536 125.525 176.188 125.939 175.904C126.353 175.643 126.833 175.512 127.443 175.512C127.944 175.534 128.359 175.664 128.664 175.904C128.969 176.144 129.165 176.449 129.274 176.842C129.383 177.234 129.405 177.67 129.34 178.128L129.274 178.498Z" fill="#0544FF"/>
  <path d="M155.347 168.122C154.366 167.62 153.276 167.359 152.033 167.337H144.839L141.351 187.393H144.73L146.038 179.916H150.246C151.597 179.916 152.84 179.698 153.995 179.24C155.173 178.782 156.132 178.084 156.895 177.147C157.658 176.21 158.094 175.011 158.203 173.572C158.312 172.286 158.116 171.174 157.592 170.258C157.069 169.343 156.328 168.623 155.347 168.122ZM154.824 173.615C154.715 174.422 154.453 175.098 154.039 175.621C153.625 176.144 153.102 176.537 152.448 176.798C151.815 177.06 151.118 177.191 150.355 177.191L146.518 177.169L147.739 170.084L151.946 170.106C152.644 170.127 153.232 170.302 153.69 170.607C154.148 170.912 154.475 171.305 154.671 171.828C154.867 172.329 154.911 172.918 154.824 173.615Z" fill="#24272C"/>
  <path d="M168.034 172.22C167.816 172.177 167.62 172.155 167.402 172.155C166.508 172.133 165.745 172.329 165.135 172.765C164.699 173.049 164.35 173.419 164.023 173.834L164.176 172.482H161.102L158.508 187.393H161.734L163.478 177.343C163.696 176.929 163.98 176.559 164.307 176.275C164.655 175.97 165.048 175.73 165.484 175.556C165.942 175.381 166.443 175.316 167.01 175.316C167.228 175.316 167.424 175.338 167.642 175.36C167.86 175.381 168.078 175.403 168.274 175.447L168.623 172.351C168.449 172.286 168.252 172.264 168.034 172.22Z" fill="#24272C"/>
  <path d="M180.809 174.553C180.33 173.855 179.698 173.289 178.935 172.874C178.172 172.46 177.256 172.242 176.188 172.22C175.076 172.199 174.095 172.395 173.179 172.787C172.286 173.18 171.501 173.746 170.847 174.466C170.193 175.185 169.67 176.014 169.277 176.929C168.885 177.867 168.623 178.848 168.514 179.85L168.471 180.177C168.383 181.137 168.449 182.074 168.645 182.946C168.841 183.84 169.168 184.625 169.648 185.322C170.127 186.02 170.76 186.587 171.523 187.001C172.286 187.415 173.201 187.633 174.269 187.655C175.359 187.677 176.362 187.502 177.256 187.11C178.15 186.717 178.935 186.151 179.589 185.431C180.243 184.712 180.766 183.905 181.18 182.99C181.572 182.074 181.834 181.093 181.965 180.068L181.987 179.741C182.074 178.76 182.03 177.845 181.834 176.951C181.616 176.057 181.289 175.251 180.809 174.553ZM178.717 179.741L178.695 180.068C178.629 180.635 178.499 181.224 178.302 181.812C178.106 182.401 177.823 182.946 177.496 183.447C177.147 183.949 176.733 184.341 176.231 184.625C175.73 184.908 175.141 185.061 174.444 185.039C173.79 185.017 173.288 184.843 172.896 184.537C172.504 184.232 172.22 183.818 172.046 183.338C171.871 182.859 171.762 182.336 171.719 181.769C171.675 181.202 171.697 180.679 171.741 180.177L171.762 179.85C171.828 179.284 171.98 178.695 172.177 178.106C172.373 177.496 172.634 176.951 172.983 176.45C173.332 175.948 173.746 175.556 174.248 175.251C174.749 174.945 175.359 174.815 176.035 174.836C176.689 174.858 177.191 175.011 177.583 175.338C177.975 175.665 178.259 176.057 178.433 176.559C178.608 177.06 178.738 177.605 178.76 178.15C178.782 178.717 178.782 179.262 178.717 179.741Z" fill="#24272C"/>
  <path d="M192.908 179.414C192.145 179.087 191.382 178.825 190.619 178.607C190.379 178.564 190.096 178.476 189.791 178.389C189.486 178.302 189.202 178.193 188.919 178.062C188.635 177.931 188.417 177.735 188.265 177.517C188.112 177.299 188.069 177.016 188.112 176.667C188.178 176.209 188.352 175.839 188.635 175.555C188.919 175.25 189.268 175.032 189.66 174.901C190.052 174.749 190.467 174.683 190.881 174.683C191.36 174.705 191.775 174.792 192.102 174.967C192.45 175.163 192.69 175.403 192.886 175.751C193.061 176.078 193.148 176.493 193.126 176.95L196.353 176.972C196.353 175.948 196.113 175.076 195.633 174.378C195.132 173.68 194.478 173.135 193.671 172.787C192.865 172.438 191.971 172.242 191.012 172.22C190.314 172.22 189.638 172.307 188.941 172.481C188.243 172.656 187.589 172.939 187.022 173.332C186.434 173.724 185.954 174.204 185.605 174.792C185.235 175.359 185.038 176.035 184.995 176.82C184.973 177.495 185.082 178.062 185.344 178.542C185.605 179.021 185.976 179.436 186.434 179.763C186.891 180.09 187.393 180.373 187.96 180.591C188.505 180.809 189.071 180.983 189.638 181.114C190.009 181.201 190.401 181.332 190.859 181.463C191.295 181.594 191.666 181.812 191.971 182.095C192.254 182.379 192.363 182.771 192.298 183.272C192.211 183.73 192.014 184.123 191.687 184.406C191.382 184.689 190.99 184.886 190.554 185.016C190.118 185.147 189.682 185.213 189.246 185.213C188.723 185.213 188.265 185.104 187.872 184.907C187.48 184.711 187.175 184.45 186.957 184.079C186.739 183.708 186.63 183.251 186.63 182.727L183.512 182.706C183.512 183.774 183.774 184.646 184.297 185.387C184.82 186.128 185.496 186.673 186.368 187.066C187.218 187.458 188.134 187.654 189.115 187.676C189.813 187.676 190.532 187.611 191.273 187.436C191.993 187.262 192.668 186.978 193.301 186.608C193.911 186.237 194.412 185.758 194.805 185.191C195.197 184.602 195.415 183.905 195.437 183.098C195.481 182.161 195.263 181.398 194.783 180.809C194.282 180.199 193.649 179.741 192.908 179.414Z" fill="#24272C"/>
</svg>