<svg xmlns="http://www.w3.org/2000/svg" width="169" height="41" viewBox="0 0 169 41" fill="none">
  <g clip-path="url(#clip0_148_736)">
    <path d="M41.4612 31.3813H48.4465L43.3315 39.9225L36.2898 39.9338H26.3301L45.0553 9.07993H29.4847V0.538734H60.085L43.7483 27.6102L41.4612 31.3813Z" fill="white"/>
    <path d="M46.3735 39.9337H57.7979L57.8993 31.3925H51.4435L46.3735 39.9337Z" fill="#0544FF"/>
    <path d="M26.3301 0.538734V27.7898C26.3301 29.3835 26.2287 30.6855 26.0259 31.718C25.6203 33.8954 24.4598 35.8596 22.522 37.6105C20.032 39.8776 16.99 41.0112 13.396 41.0112C13.3171 41.0112 13.2382 41.0112 13.1594 41C13.0805 41.0112 13.0016 41.0112 12.9228 41.0112C9.48643 41.0112 6.5571 39.9786 4.13477 37.9023L4.60797 37.1278L9.20477 29.5294C9.7343 30.8538 10.8159 31.6844 11.9538 31.9986C12.0327 32.0323 12.1116 32.0548 12.1904 32.0772C12.213 32.0884 12.2355 32.0996 12.2468 32.0996C12.3256 32.1221 12.4045 32.1333 12.4834 32.1558C12.596 32.1782 12.7087 32.1894 12.8214 32.2007C12.934 32.2119 13.0354 32.2231 13.1481 32.2231C13.272 32.2231 13.3847 32.2119 13.4974 32.2007C13.61 32.1894 13.7227 32.1782 13.8354 32.1558C15.1761 31.9313 16.5506 31.0334 17.1365 29.4733C17.3506 28.9346 17.4632 28.3285 17.452 27.6439L17.4294 25.4889V0.538734H26.3301Z" fill="white"/>
    <path d="M8.90067 20.7638V24.7706L2.18573 35.8596C1.20553 34.5689 0.5746 33.1883 0.292933 31.7068C0.1014 30.6855 0 29.3835 0 27.7898V20.7638H8.90067Z" fill="#0544FF"/>
    <path d="M82.0438 0.774432C81.1086 0.291815 80.0608 0.0448946 78.8778 0.0112237L72.1178 0L68.9519 18.1823H72.929L74.0332 11.8634L77.2554 11.8746C78.506 11.8746 79.6778 11.6614 80.7932 11.2349C81.9086 10.8084 82.8212 10.1574 83.5535 9.28196C84.2858 8.40652 84.7027 7.3066 84.8154 5.95976C84.9168 4.72516 84.714 3.68136 84.207 2.80591C83.7 1.94169 82.9789 1.25705 82.0438 0.774432ZM80.7932 5.99343C80.703 6.59951 80.5115 7.09335 80.196 7.48618C79.8806 7.879 79.4862 8.18204 79.0018 8.39529C78.5173 8.59732 77.9765 8.70955 77.3906 8.70955H74.5852L75.5542 3.16507L78.7652 3.17629C79.306 3.20996 79.7454 3.34465 80.0721 3.60279C80.3988 3.87216 80.6242 4.20887 80.7481 4.62414C80.8495 5.0282 80.872 5.48837 80.7932 5.99343Z" fill="#0544FF"/>
    <path d="M94.2907 4.43335C94.0879 4.39967 93.8738 4.38845 93.671 4.38845C92.8711 4.38845 92.1951 4.57925 91.643 4.97208C91.2825 5.23022 90.9783 5.56693 90.6966 5.93731L90.8206 4.68027H87.249L84.8943 18.1823H88.7137L90.2009 9.65234C90.3812 9.31563 90.6065 9.02382 90.8769 8.78812C91.1586 8.55243 91.4853 8.36162 91.8684 8.24939C92.2514 8.12593 92.6796 8.06981 93.1528 8.08103C93.3668 8.08103 93.5809 8.09226 93.795 8.1147C94.009 8.13715 94.2118 8.17082 94.4372 8.20449L94.9216 4.56803C94.7076 4.50069 94.4935 4.46702 94.2907 4.43335Z" fill="#0544FF"/>
    <path d="M105.861 6.4536C105.445 5.8363 104.892 5.35368 104.205 4.99452C103.529 4.62414 102.707 4.44456 101.772 4.42212C100.746 4.39967 99.8112 4.56802 98.9888 4.92718C98.155 5.28634 97.434 5.7914 96.8256 6.44237C96.2172 7.10457 95.7327 7.84533 95.3609 8.69833C95.0004 9.55133 94.7638 10.4604 94.6624 11.4145L94.6173 11.8971C94.5497 12.8174 94.6398 13.6816 94.8764 14.4561C95.1243 15.2417 95.4961 15.9264 96.0144 16.51C96.5326 17.0936 97.1748 17.5538 97.9297 17.8905C98.6846 18.2272 99.5296 18.3956 100.465 18.418C101.118 18.4292 101.783 18.3507 102.448 18.1823C103.124 18.014 103.755 17.7558 104.329 17.3967C104.915 17.0487 105.399 16.5886 105.783 16.0161L104.126 13.9285C103.687 14.3775 103.18 14.7367 102.628 15.006C102.076 15.2754 101.479 15.3988 100.825 15.3764C100.329 15.3652 99.9239 15.2529 99.5859 15.0397C99.2592 14.8377 99 14.5683 98.8085 14.2428C98.617 13.9173 98.493 13.5469 98.4367 13.1429C98.4142 12.9745 98.4254 12.795 98.4142 12.6154H106.582L106.808 11.0104C106.898 10.1462 106.864 9.31563 106.706 8.52997C106.571 7.76676 106.278 7.0709 105.861 6.4536ZM103.169 10.135L98.7184 10.1237C98.7296 10.1013 98.7296 10.0788 98.7296 10.0564C98.8536 9.585 99.0226 9.14727 99.2479 8.74322C99.4732 8.33917 99.7662 8.02491 100.138 7.77799C100.51 7.54229 100.96 7.43005 101.512 7.43005C101.974 7.44128 102.346 7.56474 102.628 7.77799C102.91 8.00246 103.09 8.28305 103.191 8.63099C103.293 8.97892 103.315 9.37175 103.259 9.80947L103.169 10.135Z" fill="#0544FF"/>
    <path d="M113.523 7.23925C113.816 7.12702 114.097 7.0709 114.39 7.08212C114.762 7.08212 115.066 7.14947 115.303 7.29537C115.54 7.43006 115.709 7.63208 115.821 7.879C115.923 8.13715 115.979 8.44019 115.968 8.78812L119.765 8.79934C119.765 7.81166 119.517 7.00356 119.021 6.36381C118.525 5.72406 117.883 5.23022 117.083 4.91596C116.283 4.6017 115.438 4.43334 114.537 4.42212C113.872 4.41089 113.219 4.48946 112.554 4.65782C111.889 4.82617 111.281 5.09554 110.717 5.45469C110.154 5.80263 109.703 6.2628 109.354 6.80153C109.005 7.34027 108.813 7.98002 108.78 8.72078C108.757 9.32685 108.858 9.85437 109.106 10.3033C109.343 10.7523 109.67 11.1339 110.075 11.4593C110.481 11.7736 110.931 12.0318 111.438 12.245C111.945 12.447 112.452 12.6154 112.959 12.7388C113.207 12.8062 113.523 12.896 113.906 12.997C114.289 13.098 114.616 13.2551 114.886 13.4684C115.156 13.6704 115.258 13.9734 115.179 14.3438C115.111 14.6805 114.965 14.9499 114.74 15.1519C114.514 15.3652 114.244 15.5223 113.94 15.6233C113.624 15.7131 113.32 15.7692 113.005 15.7692C112.588 15.758 112.238 15.6794 111.945 15.5335C111.653 15.3876 111.427 15.1856 111.281 14.8938C111.123 14.6132 111.055 14.2765 111.044 13.85L107.484 13.8388C107.506 14.8264 107.766 15.6458 108.261 16.3304C108.757 17.0038 109.422 17.5201 110.233 17.8681C111.044 18.216 111.9 18.4068 112.813 18.418C113.466 18.4292 114.142 18.3507 114.83 18.1935C115.528 18.0476 116.182 17.8007 116.779 17.464C117.376 17.1273 117.872 16.6896 118.255 16.1508C118.638 15.6121 118.852 14.9611 118.886 14.1867C118.908 13.2888 118.694 12.5705 118.244 12.0205C117.793 11.4706 117.207 11.0441 116.508 10.7523C115.799 10.4492 115.078 10.2135 114.334 10.0227C114.142 9.97783 113.928 9.93293 113.692 9.85437C113.455 9.78702 113.23 9.70846 113.016 9.59622C112.802 9.49521 112.633 9.36053 112.52 9.18095C112.396 9.00137 112.362 8.78812 112.419 8.52998C112.464 8.21571 112.599 7.94635 112.802 7.7331C112.982 7.51985 113.23 7.36272 113.523 7.23925Z" fill="#0544FF"/>
    <path d="M126.299 7.23925C126.592 7.12702 126.874 7.0709 127.167 7.08212C127.539 7.08212 127.843 7.14947 128.079 7.29537C128.316 7.43006 128.485 7.63208 128.598 7.879C128.699 8.13715 128.755 8.44019 128.744 8.78812L132.541 8.79934C132.541 7.81166 132.293 7.00356 131.797 6.36381C131.302 5.72406 130.659 5.23022 129.859 4.91596C129.06 4.6017 128.215 4.43334 127.313 4.42212C126.648 4.41089 125.995 4.48946 125.33 4.65782C124.666 4.82617 124.057 5.09554 123.494 5.45469C122.93 5.80263 122.48 6.2628 122.131 6.80153C121.781 7.34027 121.59 7.98002 121.556 8.72078C121.533 9.32685 121.635 9.85437 121.883 10.3033C122.119 10.7523 122.446 11.1339 122.852 11.4593C123.257 11.7736 123.708 12.0318 124.215 12.245C124.722 12.447 125.229 12.6154 125.736 12.7388C125.984 12.8062 126.299 12.896 126.682 12.997C127.065 13.098 127.392 13.2551 127.662 13.4684C127.933 13.6704 128.034 13.9734 127.955 14.3438C127.888 14.6805 127.741 14.9499 127.516 15.1519C127.291 15.3652 127.02 15.5223 126.716 15.6233C126.401 15.7131 126.096 15.7692 125.781 15.7692C125.364 15.758 125.015 15.6794 124.722 15.5335C124.429 15.3876 124.204 15.1856 124.057 14.8938C123.899 14.6132 123.832 14.2765 123.821 13.85L120.26 13.8388C120.283 14.8264 120.542 15.6458 121.038 16.3304C121.533 17.0038 122.198 17.5201 123.009 17.8681C123.821 18.216 124.677 18.4068 125.589 18.418C126.243 18.4292 126.919 18.3507 127.606 18.1935C128.305 18.0476 128.958 17.8007 129.555 17.464C130.152 17.1273 130.648 16.6896 131.031 16.1508C131.414 15.6121 131.628 14.9611 131.662 14.1867C131.685 13.2888 131.471 12.5705 131.02 12.0205C130.569 11.4706 129.983 11.0441 129.285 10.7523C128.575 10.4492 127.854 10.2135 127.11 10.0227C126.919 9.97783 126.705 9.93293 126.468 9.85437C126.232 9.78702 126.006 9.70846 125.792 9.59622C125.578 9.49521 125.409 9.36053 125.296 9.18095C125.173 9.00137 125.139 8.78812 125.195 8.52998C125.24 8.21571 125.375 7.94635 125.578 7.7331C125.77 7.51985 126.018 7.36272 126.299 7.23925Z" fill="#0544FF"/>
    <path d="M141.442 14.0857C141.227 14.4448 140.968 14.7479 140.63 14.9836C140.202 15.2866 139.65 15.4213 138.974 15.3876C138.67 15.3764 138.433 15.3203 138.242 15.2193C138.05 15.1183 137.904 14.9836 137.814 14.804C137.712 14.6244 137.656 14.4224 137.622 14.1867C137.588 13.951 137.588 13.7153 137.622 13.4572L139.109 4.66904H135.29L133.825 13.4123C133.758 14.0857 133.78 14.7254 133.882 15.3203C133.983 15.9264 134.186 16.4539 134.49 16.9253C134.794 17.3967 135.2 17.7558 135.718 18.0252C136.225 18.2946 136.856 18.4405 137.6 18.4517C138.501 18.4629 139.29 18.2946 139.943 17.9466C140.394 17.6997 140.766 17.3854 141.115 17.0375L141.002 18.1935H144.574L146.928 4.68026H143.086L141.442 14.0857Z" fill="#0544FF"/>
    <path d="M156.415 4.43335C156.212 4.39967 155.998 4.38845 155.795 4.38845C154.995 4.38845 154.319 4.57925 153.767 4.97208C153.407 5.23022 153.103 5.56693 152.821 5.93731L152.945 4.68027H149.373L147.019 18.1935H150.838L152.325 9.66357C152.505 9.32686 152.731 9.03504 153.001 8.79935C153.283 8.56365 153.61 8.37285 153.993 8.26061C154.376 8.13715 154.804 8.08103 155.277 8.09226C155.491 8.09226 155.705 8.10348 155.919 8.12593C156.133 8.14837 156.336 8.18205 156.561 8.21572L157.035 4.57925C156.821 4.50069 156.618 4.46702 156.415 4.43335Z" fill="#0544FF"/>
    <path d="M168.853 8.55242C168.696 7.76676 168.403 7.0709 167.986 6.4536C167.569 5.8363 167.017 5.35368 166.33 4.99452C165.654 4.62414 164.831 4.44456 163.896 4.42212C162.871 4.39967 161.936 4.56802 161.113 4.92718C160.28 5.28634 159.558 5.7914 158.95 6.44237C158.342 7.10457 157.857 7.84533 157.485 8.69833C157.125 9.55133 156.888 10.4604 156.787 11.4145L156.742 11.8971C156.674 12.8174 156.764 13.6816 157.001 14.4561C157.249 15.2417 157.621 15.9264 158.139 16.51C158.657 17.0936 159.299 17.5538 160.054 17.8905C160.809 18.2272 161.654 18.3956 162.589 18.418C163.243 18.4292 163.907 18.3507 164.572 18.1823C165.248 18.014 165.879 17.7558 166.454 17.3967C167.04 17.0487 167.524 16.5886 167.907 16.0161L166.251 13.9285C165.811 14.3775 165.304 14.7367 164.752 15.006C164.2 15.2754 163.603 15.3988 162.95 15.3764C162.454 15.3652 162.048 15.2529 161.71 15.0397C161.384 14.8377 161.125 14.5683 160.933 14.2428C160.741 13.9173 160.618 13.5469 160.561 13.1429C160.539 12.9745 160.55 12.795 160.539 12.6154H168.707L168.932 11.0104C169.045 10.1574 169.011 9.33808 168.853 8.55242ZM165.293 10.135L160.843 10.1237C160.854 10.1013 160.854 10.0788 160.854 10.0564C160.978 9.585 161.147 9.14727 161.372 8.74322C161.598 8.33917 161.891 8.02491 162.262 7.77799C162.634 7.54229 163.085 7.43005 163.637 7.43005C164.099 7.44128 164.471 7.56474 164.752 7.77799C165.034 8.00246 165.214 8.28305 165.316 8.63099C165.417 8.97892 165.44 9.37175 165.383 9.80947L165.293 10.135Z" fill="#0544FF"/>
    <path d="M77.954 22.784C77.064 22.3351 76.0612 22.0881 74.9346 22.0657L68.3774 22.0545L65.2114 40.2368H68.2985L69.4815 33.4577H73.3122C74.529 33.4577 75.6669 33.2557 76.7372 32.8516C77.7963 32.4364 78.6751 31.8078 79.3624 30.9548C80.0496 30.1018 80.444 29.0244 80.5566 27.7224C80.658 26.5439 80.4665 25.545 80.0046 24.7145C79.5201 23.8727 78.8441 23.233 77.954 22.784ZM77.4696 27.7449C77.3794 28.4744 77.1428 29.0805 76.7598 29.5519C76.3767 30.0345 75.9035 30.3824 75.3176 30.6293C74.7318 30.865 74.1008 30.9773 73.4023 30.9773L69.8984 30.9661L71.0138 24.5461L74.8332 24.5573C75.4641 24.5798 75.9936 24.7257 76.4105 25.0063C76.8274 25.2757 77.1316 25.646 77.3118 26.1174C77.5146 26.5888 77.5597 27.1276 77.4696 27.7449Z" fill="white"/>
    <path d="M89.5024 26.4878C89.3109 26.4541 89.1194 26.4429 88.9278 26.4429C88.1166 26.4205 87.4294 26.6113 86.8548 26.9817C86.4604 27.2398 86.1337 27.5765 85.8408 27.9469L85.9872 26.7235H83.1931L80.8384 40.2368H83.779L85.3676 31.1344C85.5704 30.7528 85.8295 30.4273 86.1224 30.158C86.4266 29.8774 86.7984 29.6753 87.204 29.5182C87.6096 29.3723 88.0716 29.2937 88.5786 29.305C88.7701 29.305 88.9616 29.3162 89.1644 29.3499C89.356 29.3723 89.5588 29.3947 89.7503 29.4396L90.077 26.6337C89.8855 26.5552 89.694 26.5215 89.5024 26.4878Z" fill="white"/>
    <path d="M101.118 28.5979C100.679 27.9581 100.115 27.4531 99.4169 27.0715C98.7184 26.6898 97.8846 26.4878 96.9157 26.4654C95.913 26.4429 95.0004 26.6113 94.1892 26.9817C93.378 27.3408 92.6682 27.8571 92.0711 28.5081C91.4739 29.159 91.0007 29.911 90.6402 30.7528C90.2796 31.5946 90.0543 32.4813 89.9529 33.4128L89.9191 33.7046C89.8403 34.5801 89.8966 35.4106 90.0656 36.2187C90.2459 37.0268 90.5501 37.7339 90.9895 38.3737C91.4289 39.0022 91.9922 39.5073 92.6907 39.8889C93.3892 40.2705 94.223 40.4725 95.1807 40.4837C96.1721 40.5062 97.0735 40.3378 97.8959 39.9786C98.7071 39.6195 99.4169 39.1144 100.014 38.4635C100.611 37.8237 101.096 37.0829 101.456 36.2412C101.817 35.4106 102.053 34.5352 102.166 33.6036L102.189 33.3118C102.267 32.4251 102.222 31.5834 102.053 30.7753C101.862 29.9672 101.558 29.2376 101.118 28.5979ZM99.2254 33.3118L99.2029 33.6036C99.1465 34.1199 99.0226 34.6474 98.8423 35.1749C98.6621 35.7137 98.4142 36.2075 98.11 36.6564C97.8058 37.1054 97.4115 37.4646 96.9608 37.7339C96.4989 37.9921 95.9581 38.1267 95.3384 38.1043C94.7525 38.0819 94.2793 37.9359 93.9301 37.6554C93.5808 37.3748 93.3217 37.0156 93.1527 36.5667C92.9837 36.1289 92.8823 35.6575 92.8485 35.1413C92.8147 34.6362 92.8147 34.1536 92.8597 33.6934L92.8823 33.4016C92.9499 32.8853 93.0738 32.3578 93.254 31.8191C93.4343 31.2803 93.6822 30.7753 93.9864 30.3263C94.2906 29.8661 94.6737 29.507 95.1356 29.2264C95.5975 28.957 96.1383 28.8336 96.7693 28.856C97.3551 28.8672 97.8283 29.0244 98.1776 29.305C98.5269 29.5968 98.786 29.9672 98.955 30.4161C99.124 30.865 99.2254 31.3589 99.2592 31.8639C99.2817 32.3915 99.2705 32.8629 99.2254 33.3118Z" fill="white"/>
    <path d="M112.126 33.0088C111.439 32.7169 110.74 32.47 110.03 32.2792C109.805 32.2343 109.557 32.1558 109.275 32.0772C108.994 31.9986 108.735 31.8976 108.475 31.7742C108.228 31.6507 108.025 31.4823 107.89 31.2803C107.743 31.0783 107.698 30.8201 107.754 30.5059C107.811 30.0906 107.968 29.7539 108.228 29.4958C108.487 29.2264 108.802 29.0244 109.163 28.8897C109.523 28.755 109.895 28.6877 110.267 28.6989C110.706 28.7101 111.078 28.7999 111.382 28.957C111.686 29.1254 111.923 29.3611 112.092 29.6641C112.25 29.9672 112.329 30.3263 112.317 30.7416L115.247 30.7528C115.258 29.8212 115.033 29.0356 114.593 28.4071C114.143 27.7673 113.545 27.2959 112.813 26.9704C112.07 26.6449 111.258 26.4766 110.391 26.4541C109.76 26.4429 109.14 26.5215 108.498 26.6898C107.856 26.847 107.281 27.1163 106.752 27.4643C106.222 27.8122 105.783 28.2612 105.456 28.7774C105.118 29.305 104.938 29.911 104.904 30.6069C104.881 31.213 104.994 31.7405 105.231 32.1782C105.479 32.6159 105.805 32.9863 106.222 33.2781C106.639 33.5812 107.101 33.8281 107.608 34.0301C108.115 34.2209 108.622 34.378 109.129 34.5127C109.467 34.5913 109.827 34.7035 110.233 34.8382C110.639 34.9617 110.965 35.1637 111.236 35.4218C111.506 35.68 111.596 36.0279 111.54 36.4881C111.461 36.9146 111.281 37.2513 110.999 37.5094C110.718 37.7676 110.368 37.9472 109.974 38.0594C109.58 38.1716 109.185 38.2278 108.791 38.2278C108.318 38.2165 107.901 38.1267 107.54 37.9584C107.191 37.79 106.909 37.5319 106.718 37.2064C106.515 36.8697 106.425 36.4656 106.425 35.983L103.574 35.9718C103.574 36.937 103.811 37.7339 104.284 38.4073C104.757 39.0695 105.388 39.5746 106.166 39.9225C106.943 40.2705 107.777 40.45 108.667 40.4725C109.309 40.4837 109.963 40.4051 110.627 40.248C111.292 40.0797 111.901 39.8327 112.464 39.496C113.016 39.1593 113.478 38.7216 113.838 38.2053C114.199 37.6778 114.39 37.0493 114.413 36.3085C114.447 35.4555 114.255 34.7596 113.827 34.2321C113.376 33.7159 112.813 33.3006 112.126 33.0088Z" fill="white"/>
  </g>
  <defs>
    <clipPath id="clip0_148_736">
      <rect width="169" height="41" fill="white"/>
    </clipPath>
  </defs>
</svg>