<svg xmlns="http://www.w3.org/2000/svg" width="48" height="48" viewBox="0 0 48 48" fill="none">
  <g clip-path="url(#clip0_21_370)">
    <path
      d="M15.8916 16.5242C15.5558 22.8659 17.2642 29.187 20.7159 34.5284L26.7264 32.9179C27.464 32.7203 28.2468 32.9644 28.7331 33.5222C30.303 35.2831 32.1987 36.8395 34.3465 38.0795C35.2991 38.6295 35.6285 39.8589 35.0785 40.8116L31.5885 46.8564C31.0385 47.809 29.8091 48.1385 28.8565 47.5885C12.5925 38.1985 7.02162 17.4076 16.4116 1.1436C16.9616 0.190968 18.191 -0.138455 19.1437 0.411545L25.2058 3.91154C26.1585 4.46154 26.4879 5.69097 25.9379 6.6436C24.6879 8.80866 23.8343 11.0871 23.3552 13.397C23.1957 14.1132 22.6671 14.7087 21.9022 14.9137L15.8916 16.5242Z"
      fill="#FFFFFF"
    />
  </g>
  <defs>
    <clipPath id="clip0_21_370">
      <rect width="48" height="48" fill="white" />
    </clipPath>
  </defs>
</svg>
