<svg xmlns="http://www.w3.org/2000/svg" width="48" height="48" viewBox="0 0 48 48" fill="none">
    <path
      d="M15.8915 16.5242C15.5557 22.8659 17.264 29.187 20.7157 34.5284L26.7262 32.9179C27.4639 32.7203 28.2467 32.9644 28.7329 33.5222C30.3028 35.2831 32.1986 36.8395 34.3464 38.0795C35.299 38.6295 35.6284 39.8589 35.0784 40.8116L31.5884 46.8564C31.0384 47.809 29.809 48.1385 28.8564 47.5885C12.5924 38.1985 7.0215 17.4076 16.4115 1.1436C16.9615 0.190968 18.1909 -0.138455 19.1435 0.411545L25.2057 3.91154C26.1584 4.46154 26.4878 5.69097 25.9378 6.6436C24.6878 8.80866 23.8342 11.0871 23.355 13.397C23.1956 14.1132 22.667 14.7087 21.902 14.9137L15.8915 16.5242Z"
      fill="#064072"
    />
  </svg>